<svg width="428" height="908" viewBox="0 0 428 908" fill="none" xmlns="http://www.w3.org/2000/svg">
<g clip-path="url(#clip0_1_1304)">
<rect x="8" y="8" width="412" height="892" rx="18" fill="#FFBA61"/>
<path d="M34.0781 43.7012H34.2148C34.8438 43.7012 35.3678 43.6191 35.7871 43.4551C36.2109 43.2865 36.5482 43.054 36.7988 42.7578C37.0495 42.4616 37.2295 42.113 37.3389 41.7119C37.4482 41.3109 37.5029 40.8757 37.5029 40.4062V38.6904C37.5029 38.2848 37.4596 37.9294 37.373 37.624C37.291 37.3141 37.1725 37.0566 37.0176 36.8516C36.8672 36.6419 36.6917 36.4847 36.4912 36.3799C36.2952 36.2751 36.0833 36.2227 35.8555 36.2227C35.6048 36.2227 35.3792 36.2796 35.1787 36.3936C34.9827 36.5029 34.8164 36.6556 34.6797 36.8516C34.5475 37.043 34.445 37.2686 34.3721 37.5283C34.3037 37.7835 34.2695 38.057 34.2695 38.3486C34.2695 38.6221 34.3014 38.8864 34.3652 39.1416C34.4336 39.3923 34.5339 39.6156 34.666 39.8115C34.7982 40.0075 34.9645 40.1624 35.165 40.2764C35.3656 40.3903 35.6003 40.4473 35.8691 40.4473C36.1243 40.4473 36.359 40.3994 36.5732 40.3037C36.7874 40.2035 36.9743 40.069 37.1338 39.9004C37.2933 39.7318 37.4186 39.5426 37.5098 39.333C37.6009 39.1234 37.651 38.9092 37.6602 38.6904L38.2891 38.8818C38.2891 39.2282 38.2161 39.57 38.0703 39.9072C37.929 40.2399 37.7308 40.5452 37.4756 40.8232C37.2249 41.0967 36.931 41.3154 36.5938 41.4795C36.2611 41.6436 35.8988 41.7256 35.5068 41.7256C35.0329 41.7256 34.6136 41.6367 34.249 41.459C33.889 41.2767 33.5882 41.0306 33.3467 40.7207C33.1097 40.4108 32.932 40.0553 32.8135 39.6543C32.695 39.2533 32.6357 38.8317 32.6357 38.3896C32.6357 37.9111 32.7087 37.4622 32.8545 37.043C33.0003 36.6237 33.2122 36.2546 33.4902 35.9355C33.7682 35.612 34.1055 35.3613 34.502 35.1836C34.903 35.0013 35.3564 34.9102 35.8623 34.9102C36.4001 34.9102 36.8717 35.015 37.2773 35.2246C37.6829 35.4342 38.0247 35.7236 38.3027 36.0928C38.5807 36.4619 38.7904 36.8903 38.9316 37.3779C39.0729 37.8656 39.1436 38.3896 39.1436 38.9502V39.5312C39.1436 40.1191 39.0911 40.6865 38.9863 41.2334C38.8815 41.7757 38.7106 42.2793 38.4736 42.7441C38.2412 43.2044 37.9336 43.61 37.5508 43.9609C37.1725 44.3073 36.7077 44.5785 36.1562 44.7744C35.6094 44.9658 34.9668 45.0615 34.2285 45.0615H34.0781V43.7012ZM41.1019 44.1797C41.1019 43.9245 41.1885 43.7103 41.3617 43.5371C41.5349 43.3594 41.7696 43.2705 42.0658 43.2705C42.3666 43.2705 42.6013 43.3594 42.7699 43.5371C42.9431 43.7103 43.0296 43.9245 43.0296 44.1797C43.0296 44.4349 42.9431 44.6491 42.7699 44.8223C42.6013 44.9954 42.3666 45.082 42.0658 45.082C41.7696 45.082 41.5349 44.9954 41.3617 44.8223C41.1885 44.6491 41.1019 44.4349 41.1019 44.1797ZM41.1088 38.3555C41.1088 38.1003 41.1953 37.8861 41.3685 37.7129C41.5417 37.5352 41.7764 37.4463 42.0726 37.4463C42.3734 37.4463 42.6081 37.5352 42.7767 37.7129C42.9499 37.8861 43.0365 38.1003 43.0365 38.3555C43.0365 38.6107 42.9499 38.8249 42.7767 38.998C42.6081 39.1712 42.3734 39.2578 42.0726 39.2578C41.7764 39.2578 41.5417 39.1712 41.3685 38.998C41.1953 38.8249 41.1088 38.6107 41.1088 38.3555ZM46.7517 39.2783H47.7361C48.1189 39.2783 48.4356 39.2122 48.6862 39.0801C48.9415 38.9479 49.1306 38.7656 49.2536 38.5332C49.3767 38.3008 49.4382 38.0342 49.4382 37.7334C49.4382 37.4189 49.3812 37.1501 49.2673 36.9268C49.1579 36.6989 48.9893 36.5234 48.7614 36.4004C48.5381 36.2773 48.2533 36.2158 47.907 36.2158C47.6153 36.2158 47.351 36.2751 47.114 36.3936C46.8816 36.5075 46.697 36.6715 46.5603 36.8857C46.4236 37.0954 46.3552 37.346 46.3552 37.6377H44.7009C44.7009 37.109 44.8399 36.6396 45.1179 36.2295C45.3959 35.8193 45.7741 35.498 46.2527 35.2656C46.7357 35.0286 47.278 34.9102 47.8796 34.9102C48.5222 34.9102 49.0827 35.0173 49.5612 35.2314C50.0443 35.4411 50.4203 35.7555 50.6892 36.1748C50.9581 36.5941 51.0925 37.1136 51.0925 37.7334C51.0925 38.016 51.0264 38.3031 50.8943 38.5947C50.7621 38.8864 50.5661 39.153 50.3064 39.3945C50.0466 39.6315 49.723 39.8252 49.3357 39.9756C48.9483 40.1214 48.4994 40.1943 47.989 40.1943H46.7517V39.2783ZM46.7517 40.5635V39.6611H47.989C48.5723 39.6611 49.0691 39.7295 49.4792 39.8662C49.8939 40.0029 50.2312 40.1921 50.4909 40.4336C50.7507 40.6706 50.9398 40.9417 51.0583 41.2471C51.1814 41.5524 51.2429 41.876 51.2429 42.2178C51.2429 42.6826 51.1586 43.0973 50.99 43.4619C50.8259 43.8219 50.5912 44.1273 50.2859 44.3779C49.9805 44.6286 49.6228 44.8177 49.2126 44.9453C48.807 45.0729 48.365 45.1367 47.8864 45.1367C47.4581 45.1367 47.0479 45.0775 46.656 44.959C46.264 44.8405 45.9131 44.665 45.6032 44.4326C45.2933 44.1956 45.0473 43.9017 44.865 43.5508C44.6872 43.1953 44.5984 42.7852 44.5984 42.3203H46.2458C46.2458 42.6165 46.3142 42.8786 46.4509 43.1064C46.5922 43.3298 46.7881 43.5052 47.0388 43.6328C47.294 43.7604 47.5857 43.8242 47.9138 43.8242C48.2601 43.8242 48.5586 43.7627 48.8093 43.6396C49.0599 43.5166 49.2514 43.3343 49.3835 43.0928C49.5202 42.8512 49.5886 42.5596 49.5886 42.2178C49.5886 41.8304 49.5134 41.516 49.363 41.2744C49.2126 41.0329 48.9984 40.8551 48.7204 40.7412C48.4424 40.6227 48.1143 40.5635 47.7361 40.5635H46.7517ZM59.5382 39.1895V40.8164C59.5382 41.5957 59.4607 42.2611 59.3057 42.8125C59.1554 43.3594 58.9366 43.8037 58.6495 44.1455C58.3624 44.4873 58.0183 44.738 57.6173 44.8975C57.2208 45.057 56.7764 45.1367 56.2843 45.1367C55.8923 45.1367 55.5277 45.0866 55.1905 44.9863C54.8578 44.8861 54.557 44.7288 54.2882 44.5146C54.0193 44.3005 53.7891 44.0247 53.5977 43.6875C53.4109 43.3457 53.2651 42.9378 53.1602 42.4639C53.06 41.9899 53.0098 41.4408 53.0098 40.8164V39.1895C53.0098 38.4056 53.0873 37.7448 53.2423 37.207C53.3972 36.6647 53.6182 36.2249 53.9054 35.8877C54.1925 35.5459 54.5343 35.2975 54.9307 35.1426C55.3318 34.9876 55.7784 34.9102 56.2706 34.9102C56.6671 34.9102 57.0317 34.9603 57.3643 35.0605C57.7016 35.1562 58.0024 35.3089 58.2667 35.5186C58.5356 35.7282 58.7634 36.0016 58.9503 36.3389C59.1417 36.6715 59.2875 37.0749 59.3878 37.5488C59.488 38.0182 59.5382 38.5651 59.5382 39.1895ZM57.8907 41.0488V38.9434C57.8907 38.5469 57.8679 38.1982 57.8223 37.8975C57.7768 37.5921 57.7084 37.3346 57.6173 37.125C57.5307 36.9108 57.4213 36.7376 57.2891 36.6055C57.157 36.4688 57.0066 36.3708 56.838 36.3115C56.6693 36.2477 56.4802 36.2158 56.2706 36.2158C56.0154 36.2158 55.7875 36.266 55.587 36.3662C55.3865 36.4619 55.2179 36.6169 55.0811 36.8311C54.9444 37.0452 54.8396 37.3278 54.7667 37.6787C54.6983 38.0251 54.6641 38.4466 54.6641 38.9434V41.0488C54.6641 41.4499 54.6869 41.8031 54.7325 42.1084C54.7781 42.4137 54.8464 42.6758 54.9376 42.8945C55.0287 43.1087 55.1381 43.2865 55.2657 43.4277C55.3979 43.5645 55.5483 43.6647 55.7169 43.7285C55.8901 43.7923 56.0792 43.8242 56.2843 43.8242C56.544 43.8242 56.7742 43.7741 56.9747 43.6738C57.1752 43.5736 57.3438 43.4141 57.4805 43.1953C57.6173 42.972 57.7198 42.6826 57.7882 42.3271C57.8565 41.9717 57.8907 41.5456 57.8907 41.0488Z" fill="#1C1B1F"/>
<path opacity="0.1" d="M358.5 34.4166C355.1 34.4166 352.125 35.9041 350 38.2416L358.5 48.5833L367 38.2416C364.875 35.9041 361.9 34.4166 358.5 34.4166Z" fill="#1C1B1F"/>
<path d="M381.583 34.4166L367.417 48.5833H381.583V34.4166Z" fill="#1C1B1F"/>
<path opacity="0.3" d="M393.5 34H390.5V35.5H389C388.448 35.5 388 36.0037 388 36.625V47.875C388 48.4963 388.448 49 389 49H395C395.552 49 396 48.4963 396 47.875V36.625C396 36.0037 395.552 35.5 395 35.5H393.5V34Z" fill="#1C1B1F"/>
<path d="M388 42C388 42.5833 388 47.3667 388 47.95C388 48.5299 388.448 49 389 49H395C395.552 49 396 48.5299 396 47.95C396 47.3667 396 42.5833 396 42H388Z" fill="#1C1B1F"/>
<rect x="178" y="890" width="72" height="2" rx="1" fill="#1C1B1F"/>
</g>
<rect x="4" y="4" width="420" height="900" rx="22" stroke="#747775" stroke-opacity="0.5" stroke-width="8"/>
<path d="M115.598 321.464C114.67 321.464 113.916 321.251 113.336 320.826C112.794 320.401 112.466 319.84 112.35 319.144C112.234 318.409 112.369 317.597 112.756 316.708L128.068 282.778C128.57 281.657 129.17 280.864 129.866 280.4C130.6 279.897 131.432 279.646 132.36 279.646C133.249 279.646 134.042 279.897 134.738 280.4C135.472 280.864 136.091 281.657 136.594 282.778L151.964 316.708C152.389 317.597 152.544 318.409 152.428 319.144C152.312 319.879 151.983 320.459 151.442 320.884C150.9 321.271 150.185 321.464 149.296 321.464C148.213 321.464 147.362 321.213 146.744 320.71C146.164 320.169 145.642 319.357 145.178 318.274L141.408 309.516L144.54 311.546H120.064L123.196 309.516L119.484 318.274C118.981 319.395 118.459 320.207 117.918 320.71C117.376 321.213 116.603 321.464 115.598 321.464ZM132.244 288.172L124.124 307.486L122.616 305.63H141.988L140.538 307.486L132.36 288.172H132.244ZM161.252 321.464C160.092 321.464 159.202 321.155 158.584 320.536C157.965 319.879 157.656 318.951 157.656 317.752V295.828C157.656 294.629 157.965 293.721 158.584 293.102C159.202 292.483 160.072 292.174 161.194 292.174C162.315 292.174 163.185 292.483 163.804 293.102C164.422 293.721 164.732 294.629 164.732 295.828V299.772L164.094 298.322C164.944 296.273 166.259 294.726 168.038 293.682C169.855 292.599 171.904 292.058 174.186 292.058C176.467 292.058 178.342 292.483 179.812 293.334C181.281 294.185 182.383 295.48 183.118 297.22C183.852 298.921 184.22 301.087 184.22 303.716V317.752C184.22 318.951 183.91 319.879 183.292 320.536C182.673 321.155 181.784 321.464 180.624 321.464C179.464 321.464 178.555 321.155 177.898 320.536C177.279 319.879 176.97 318.951 176.97 317.752V304.064C176.97 301.86 176.544 300.255 175.694 299.25C174.882 298.245 173.606 297.742 171.866 297.742C169.739 297.742 168.038 298.419 166.762 299.772C165.524 301.087 164.906 302.846 164.906 305.05V317.752C164.906 320.227 163.688 321.464 161.252 321.464ZM198.492 331.904C197.642 331.904 196.946 331.672 196.404 331.208C195.863 330.783 195.534 330.203 195.418 329.468C195.341 328.733 195.476 327.96 195.824 327.148L199.768 318.39V321.406L189.212 296.988C188.864 296.137 188.748 295.345 188.864 294.61C188.98 293.875 189.328 293.295 189.908 292.87C190.527 292.406 191.358 292.174 192.402 292.174C193.292 292.174 194.007 292.387 194.548 292.812C195.09 293.199 195.573 293.953 195.998 295.074L203.828 314.62H202.088L210.092 295.016C210.518 293.933 211.02 293.199 211.6 292.812C212.18 292.387 212.954 292.174 213.92 292.174C214.771 292.174 215.448 292.406 215.95 292.87C216.453 293.295 216.762 293.875 216.878 294.61C216.994 295.306 216.859 296.079 216.472 296.93L202.378 329.12C201.876 330.203 201.334 330.937 200.754 331.324C200.174 331.711 199.42 331.904 198.492 331.904ZM234.197 321.58C231.258 321.58 228.706 320.981 226.541 319.782C224.376 318.583 222.694 316.882 221.495 314.678C220.296 312.435 219.697 309.806 219.697 306.79C219.697 304.509 220.026 302.479 220.683 300.7C221.379 298.883 222.365 297.336 223.641 296.06C224.917 294.745 226.444 293.759 228.223 293.102C230.002 292.406 231.993 292.058 234.197 292.058C237.136 292.058 239.688 292.657 241.853 293.856C244.018 295.055 245.7 296.756 246.899 298.96C248.098 301.164 248.697 303.774 248.697 306.79C248.697 309.071 248.349 311.121 247.653 312.938C246.996 314.755 246.029 316.321 244.753 317.636C243.477 318.912 241.95 319.898 240.171 320.594C238.392 321.251 236.401 321.58 234.197 321.58ZM234.197 316.07C235.628 316.07 236.884 315.722 237.967 315.026C239.05 314.33 239.881 313.305 240.461 311.952C241.08 310.56 241.389 308.839 241.389 306.79C241.389 303.697 240.732 301.396 239.417 299.888C238.102 298.341 236.362 297.568 234.197 297.568C232.766 297.568 231.51 297.916 230.427 298.612C229.344 299.269 228.494 300.294 227.875 301.686C227.295 303.039 227.005 304.741 227.005 306.79C227.005 309.845 227.662 312.165 228.977 313.75C230.292 315.297 232.032 316.07 234.197 316.07ZM258.277 321.464C257.117 321.464 256.228 321.155 255.609 320.536C254.99 319.879 254.681 318.951 254.681 317.752V295.828C254.681 294.629 254.99 293.721 255.609 293.102C256.228 292.483 257.098 292.174 258.219 292.174C259.34 292.174 260.21 292.483 260.829 293.102C261.448 293.721 261.757 294.629 261.757 295.828V299.772L261.119 298.322C261.97 296.273 263.284 294.726 265.063 293.682C266.88 292.599 268.93 292.058 271.211 292.058C273.492 292.058 275.368 292.483 276.837 293.334C278.306 294.185 279.408 295.48 280.143 297.22C280.878 298.921 281.245 301.087 281.245 303.716V317.752C281.245 318.951 280.936 319.879 280.317 320.536C279.698 321.155 278.809 321.464 277.649 321.464C276.489 321.464 275.58 321.155 274.923 320.536C274.304 319.879 273.995 318.951 273.995 317.752V304.064C273.995 301.86 273.57 300.255 272.719 299.25C271.907 298.245 270.631 297.742 268.891 297.742C266.764 297.742 265.063 298.419 263.787 299.772C262.55 301.087 261.931 302.846 261.931 305.05V317.752C261.931 320.227 260.713 321.464 258.277 321.464ZM302.587 321.58C299.378 321.58 296.613 320.981 294.293 319.782C291.973 318.583 290.175 316.882 288.899 314.678C287.662 312.474 287.043 309.864 287.043 306.848C287.043 303.909 287.642 301.338 288.841 299.134C290.078 296.93 291.76 295.209 293.887 293.972C296.052 292.696 298.508 292.058 301.253 292.058C303.264 292.058 305.062 292.387 306.647 293.044C308.271 293.701 309.644 294.649 310.765 295.886C311.925 297.123 312.795 298.631 313.375 300.41C313.994 302.15 314.303 304.122 314.303 306.326C314.303 307.022 314.052 307.563 313.549 307.95C313.085 308.298 312.408 308.472 311.519 308.472H292.901V304.296H309.199L308.271 305.166C308.271 303.387 308 301.899 307.459 300.7C306.956 299.501 306.202 298.593 305.197 297.974C304.23 297.317 303.012 296.988 301.543 296.988C299.919 296.988 298.527 297.375 297.367 298.148C296.246 298.883 295.376 299.946 294.757 301.338C294.177 302.691 293.887 304.315 293.887 306.21V306.616C293.887 309.787 294.622 312.165 296.091 313.75C297.599 315.297 299.803 316.07 302.703 316.07C303.708 316.07 304.83 315.954 306.067 315.722C307.343 315.451 308.542 315.007 309.663 314.388C310.475 313.924 311.19 313.731 311.809 313.808C312.428 313.847 312.911 314.059 313.259 314.446C313.646 314.833 313.878 315.316 313.955 315.896C314.032 316.437 313.916 316.998 313.607 317.578C313.336 318.158 312.853 318.661 312.157 319.086C310.804 319.937 309.238 320.575 307.459 321C305.719 321.387 304.095 321.58 302.587 321.58ZM184.966 385.58C180.712 385.58 177.058 384.729 174.004 383.028C170.988 381.288 168.668 378.852 167.044 375.72C165.42 372.549 164.608 368.818 164.608 364.526C164.608 361.317 165.072 358.436 166 355.884C166.928 353.293 168.262 351.089 170.002 349.272C171.742 347.416 173.868 346.005 176.382 345.038C178.934 344.033 181.795 343.53 184.966 343.53C187.092 343.53 189.18 343.801 191.23 344.342C193.279 344.883 195.077 345.657 196.624 346.662C197.436 347.165 197.977 347.783 198.248 348.518C198.518 349.214 198.576 349.91 198.422 350.606C198.267 351.263 197.938 351.824 197.436 352.288C196.972 352.752 196.372 353.023 195.638 353.1C194.942 353.139 194.168 352.887 193.318 352.346C192.119 351.573 190.824 351.012 189.432 350.664C188.04 350.316 186.628 350.142 185.198 350.142C182.452 350.142 180.132 350.703 178.238 351.824C176.343 352.945 174.912 354.569 173.946 356.696C172.979 358.823 172.496 361.433 172.496 364.526C172.496 367.581 172.979 370.191 173.946 372.356C174.912 374.521 176.343 376.165 178.238 377.286C180.132 378.407 182.452 378.968 185.198 378.968C186.667 378.968 188.117 378.794 189.548 378.446C190.978 378.059 192.332 377.479 193.608 376.706C194.458 376.203 195.212 375.991 195.87 376.068C196.566 376.107 197.146 376.339 197.61 376.764C198.074 377.189 198.383 377.731 198.538 378.388C198.692 379.007 198.654 379.664 198.422 380.36C198.19 381.017 197.726 381.597 197.03 382.1C195.483 383.221 193.627 384.091 191.462 384.71C189.335 385.29 187.17 385.58 184.966 385.58ZM212.986 385.58C210.937 385.58 209.1 385.193 207.476 384.42C205.891 383.608 204.634 382.525 203.706 381.172C202.817 379.819 202.372 378.291 202.372 376.59C202.372 374.502 202.913 372.859 203.996 371.66C205.079 370.423 206.838 369.533 209.274 368.992C211.71 368.451 214.977 368.18 219.076 368.18H221.976V372.356H219.134C216.737 372.356 214.823 372.472 213.392 372.704C211.961 372.936 210.937 373.342 210.318 373.922C209.738 374.463 209.448 375.237 209.448 376.242C209.448 377.518 209.893 378.562 210.782 379.374C211.671 380.186 212.909 380.592 214.494 380.592C215.77 380.592 216.891 380.302 217.858 379.722C218.863 379.103 219.656 378.272 220.236 377.228C220.816 376.184 221.106 374.985 221.106 373.632V366.962C221.106 365.029 220.681 363.637 219.83 362.786C218.979 361.935 217.549 361.51 215.538 361.51C214.417 361.51 213.199 361.645 211.884 361.916C210.608 362.187 209.255 362.651 207.824 363.308C207.089 363.656 206.432 363.753 205.852 363.598C205.311 363.443 204.885 363.134 204.576 362.67C204.267 362.167 204.112 361.626 204.112 361.046C204.112 360.466 204.267 359.905 204.576 359.364C204.885 358.784 205.407 358.359 206.142 358.088C207.921 357.353 209.622 356.831 211.246 356.522C212.909 356.213 214.417 356.058 215.77 356.058C218.554 356.058 220.835 356.483 222.614 357.334C224.431 358.185 225.785 359.48 226.674 361.22C227.563 362.921 228.008 365.125 228.008 367.832V381.752C228.008 382.951 227.718 383.879 227.138 384.536C226.558 385.155 225.727 385.464 224.644 385.464C223.561 385.464 222.711 385.155 222.092 384.536C221.512 383.879 221.222 382.951 221.222 381.752V378.968H221.686C221.415 380.321 220.874 381.501 220.062 382.506C219.289 383.473 218.303 384.227 217.104 384.768C215.905 385.309 214.533 385.58 212.986 385.58ZM238.963 385.464C237.803 385.464 236.913 385.155 236.295 384.536C235.676 383.879 235.367 382.951 235.367 381.752V359.828C235.367 358.629 235.676 357.721 236.295 357.102C236.913 356.483 237.783 356.174 238.905 356.174C240.026 356.174 240.896 356.483 241.515 357.102C242.133 357.721 242.443 358.629 242.443 359.828V363.772L241.805 362.322C242.655 360.273 243.97 358.726 245.749 357.682C247.566 356.599 249.615 356.058 251.897 356.058C254.178 356.058 256.053 356.483 257.523 357.334C258.992 358.185 260.094 359.48 260.829 361.22C261.563 362.921 261.931 365.087 261.931 367.716V381.752C261.931 382.951 261.621 383.879 261.003 384.536C260.384 385.155 259.495 385.464 258.335 385.464C257.175 385.464 256.266 385.155 255.609 384.536C254.99 383.879 254.681 382.951 254.681 381.752V368.064C254.681 365.86 254.255 364.255 253.405 363.25C252.593 362.245 251.317 361.742 249.577 361.742C247.45 361.742 245.749 362.419 244.473 363.772C243.235 365.087 242.617 366.846 242.617 369.05V381.752C242.617 384.227 241.399 385.464 238.963 385.464ZM148.164 449C146.888 449 145.902 448.671 145.206 448.014C144.549 447.318 144.22 446.332 144.22 445.056V412.054C144.22 410.778 144.549 409.811 145.206 409.154C145.902 408.458 146.888 408.11 148.164 408.11H159.416C166.26 408.11 171.538 409.869 175.25 413.388C179.001 416.907 180.876 421.953 180.876 428.526C180.876 431.813 180.393 434.732 179.426 437.284C178.498 439.797 177.106 441.924 175.25 443.664C173.433 445.404 171.19 446.738 168.522 447.666C165.893 448.555 162.857 449 159.416 449H148.164ZM151.644 442.852H158.952C161.349 442.852 163.418 442.562 165.158 441.982C166.937 441.363 168.406 440.474 169.566 439.314C170.765 438.115 171.654 436.627 172.234 434.848C172.814 433.031 173.104 430.923 173.104 428.526C173.104 423.731 171.925 420.155 169.566 417.796C167.207 415.437 163.669 414.258 158.952 414.258H151.644V442.852ZM191.416 449.464C190.217 449.464 189.289 449.155 188.632 448.536C188.013 447.879 187.704 446.951 187.704 445.752V423.828C187.704 422.629 188.013 421.721 188.632 421.102C189.25 420.483 190.12 420.174 191.242 420.174C192.363 420.174 193.233 420.483 193.852 421.102C194.47 421.721 194.78 422.629 194.78 423.828V427.482H194.2C194.741 425.162 195.804 423.403 197.39 422.204C198.975 421.005 201.082 420.29 203.712 420.058C204.524 419.981 205.162 420.193 205.626 420.696C206.128 421.16 206.418 421.895 206.496 422.9C206.573 423.867 206.341 424.659 205.8 425.278C205.297 425.858 204.524 426.206 203.48 426.322L202.204 426.438C199.845 426.67 198.066 427.405 196.868 428.642C195.669 429.841 195.07 431.542 195.07 433.746V445.752C195.07 446.951 194.76 447.879 194.142 448.536C193.523 449.155 192.614 449.464 191.416 449.464ZM219.471 449.58C217.422 449.58 215.585 449.193 213.961 448.42C212.376 447.608 211.119 446.525 210.191 445.172C209.302 443.819 208.857 442.291 208.857 440.59C208.857 438.502 209.399 436.859 210.481 435.66C211.564 434.423 213.323 433.533 215.759 432.992C218.195 432.451 221.463 432.18 225.561 432.18H228.461V436.356H225.619C223.222 436.356 221.308 436.472 219.877 436.704C218.447 436.936 217.422 437.342 216.803 437.922C216.223 438.463 215.933 439.237 215.933 440.242C215.933 441.518 216.378 442.562 217.267 443.374C218.157 444.186 219.394 444.592 220.979 444.592C222.255 444.592 223.377 444.302 224.343 443.722C225.349 443.103 226.141 442.272 226.721 441.228C227.301 440.184 227.591 438.985 227.591 437.632V430.962C227.591 429.029 227.166 427.637 226.315 426.786C225.465 425.935 224.034 425.51 222.023 425.51C220.902 425.51 219.684 425.645 218.369 425.916C217.093 426.187 215.74 426.651 214.309 427.308C213.575 427.656 212.917 427.753 212.337 427.598C211.796 427.443 211.371 427.134 211.061 426.67C210.752 426.167 210.597 425.626 210.597 425.046C210.597 424.466 210.752 423.905 211.061 423.364C211.371 422.784 211.893 422.359 212.627 422.088C214.406 421.353 216.107 420.831 217.731 420.522C219.394 420.213 220.902 420.058 222.255 420.058C225.039 420.058 227.321 420.483 229.099 421.334C230.917 422.185 232.27 423.48 233.159 425.22C234.049 426.921 234.493 429.125 234.493 431.832V445.752C234.493 446.951 234.203 447.879 233.623 448.536C233.043 449.155 232.212 449.464 231.129 449.464C230.047 449.464 229.196 449.155 228.577 448.536C227.997 447.879 227.707 446.951 227.707 445.752V442.968H228.171C227.901 444.321 227.359 445.501 226.547 446.506C225.774 447.473 224.788 448.227 223.589 448.768C222.391 449.309 221.018 449.58 219.471 449.58ZM252.531 449.464C251.564 449.464 250.733 449.232 250.037 448.768C249.341 448.265 248.78 447.492 248.355 446.448L239.945 424.988C239.597 424.06 239.481 423.248 239.597 422.552C239.751 421.817 240.119 421.237 240.699 420.812C241.279 420.387 242.052 420.174 243.019 420.174C243.869 420.174 244.565 420.387 245.107 420.812C245.648 421.199 246.112 421.953 246.499 423.074L253.517 442.388H252.183L259.433 422.61C259.742 421.759 260.148 421.141 260.651 420.754C261.192 420.367 261.888 420.174 262.739 420.174C263.589 420.174 264.285 420.387 264.827 420.812C265.368 421.199 265.774 421.798 266.045 422.61L273.179 442.388H271.961L279.037 422.9C279.423 421.856 279.907 421.141 280.487 420.754C281.105 420.367 281.782 420.174 282.517 420.174C283.445 420.174 284.16 420.406 284.663 420.87C285.165 421.334 285.455 421.933 285.533 422.668C285.61 423.364 285.475 424.137 285.127 424.988L276.775 446.448C276.388 447.453 275.827 448.207 275.093 448.71C274.397 449.213 273.565 449.464 272.599 449.464C271.632 449.464 270.781 449.213 270.047 448.71C269.351 448.207 268.809 447.453 268.423 446.448L260.825 426.322H264.131L256.707 446.39C256.32 447.434 255.779 448.207 255.083 448.71C254.387 449.213 253.536 449.464 252.531 449.464Z" fill="#1A1A1A"/>
<path d="M228 632C228 624.047 221.953 618 214 618V614C223.941 614 232 622.059 232 632H228Z" fill="#8632B3"/>
<path d="M214 646C221.953 646 228 639.953 228 632H232C232 641.941 223.941 650 214 650V646Z" fill="#8632B3"/>
<path d="M200 632C200 639.953 206.047 646 214 646V650C204.059 650 196 641.941 196 632H200Z" fill="#8632B3"/>
<defs>
<clipPath id="clip0_1_1304">
<rect x="8" y="8" width="412" height="892" rx="18" fill="white"/>
</clipPath>
</defs>
</svg>
