<svg width="428" height="908" viewBox="0 0 428 908" fill="none" xmlns="http://www.w3.org/2000/svg">
<g clip-path="url(#clip0_1_809)">
<rect x="8" y="8" width="412" height="892" rx="18" fill="#FDFDFD"/>
<path d="M34.0781 43.7012H34.2148C34.8438 43.7012 35.3678 43.6191 35.7871 43.4551C36.2109 43.2865 36.5482 43.054 36.7988 42.7578C37.0495 42.4616 37.2295 42.113 37.3389 41.7119C37.4482 41.3109 37.5029 40.8757 37.5029 40.4062V38.6904C37.5029 38.2848 37.4596 37.9294 37.373 37.624C37.291 37.3141 37.1725 37.0566 37.0176 36.8516C36.8672 36.6419 36.6917 36.4847 36.4912 36.3799C36.2952 36.2751 36.0833 36.2227 35.8555 36.2227C35.6048 36.2227 35.3792 36.2796 35.1787 36.3936C34.9827 36.5029 34.8164 36.6556 34.6797 36.8516C34.5475 37.043 34.445 37.2686 34.3721 37.5283C34.3037 37.7835 34.2695 38.057 34.2695 38.3486C34.2695 38.6221 34.3014 38.8864 34.3652 39.1416C34.4336 39.3923 34.5339 39.6156 34.666 39.8115C34.7982 40.0075 34.9645 40.1624 35.165 40.2764C35.3656 40.3903 35.6003 40.4473 35.8691 40.4473C36.1243 40.4473 36.359 40.3994 36.5732 40.3037C36.7874 40.2035 36.9743 40.069 37.1338 39.9004C37.2933 39.7318 37.4186 39.5426 37.5098 39.333C37.6009 39.1234 37.651 38.9092 37.6602 38.6904L38.2891 38.8818C38.2891 39.2282 38.2161 39.57 38.0703 39.9072C37.929 40.2399 37.7308 40.5452 37.4756 40.8232C37.2249 41.0967 36.931 41.3154 36.5938 41.4795C36.2611 41.6436 35.8988 41.7256 35.5068 41.7256C35.0329 41.7256 34.6136 41.6367 34.249 41.459C33.889 41.2767 33.5882 41.0306 33.3467 40.7207C33.1097 40.4108 32.932 40.0553 32.8135 39.6543C32.695 39.2533 32.6357 38.8317 32.6357 38.3896C32.6357 37.9111 32.7087 37.4622 32.8545 37.043C33.0003 36.6237 33.2122 36.2546 33.4902 35.9355C33.7682 35.612 34.1055 35.3613 34.502 35.1836C34.903 35.0013 35.3564 34.9102 35.8623 34.9102C36.4001 34.9102 36.8717 35.015 37.2773 35.2246C37.6829 35.4342 38.0247 35.7236 38.3027 36.0928C38.5807 36.4619 38.7904 36.8903 38.9316 37.3779C39.0729 37.8656 39.1436 38.3896 39.1436 38.9502V39.5312C39.1436 40.1191 39.0911 40.6865 38.9863 41.2334C38.8815 41.7757 38.7106 42.2793 38.4736 42.7441C38.2412 43.2044 37.9336 43.61 37.5508 43.9609C37.1725 44.3073 36.7077 44.5785 36.1562 44.7744C35.6094 44.9658 34.9668 45.0615 34.2285 45.0615H34.0781V43.7012ZM41.1019 44.1797C41.1019 43.9245 41.1885 43.7103 41.3617 43.5371C41.5349 43.3594 41.7696 43.2705 42.0658 43.2705C42.3666 43.2705 42.6013 43.3594 42.7699 43.5371C42.9431 43.7103 43.0296 43.9245 43.0296 44.1797C43.0296 44.4349 42.9431 44.6491 42.7699 44.8223C42.6013 44.9954 42.3666 45.082 42.0658 45.082C41.7696 45.082 41.5349 44.9954 41.3617 44.8223C41.1885 44.6491 41.1019 44.4349 41.1019 44.1797ZM41.1088 38.3555C41.1088 38.1003 41.1953 37.8861 41.3685 37.7129C41.5417 37.5352 41.7764 37.4463 42.0726 37.4463C42.3734 37.4463 42.6081 37.5352 42.7767 37.7129C42.9499 37.8861 43.0365 38.1003 43.0365 38.3555C43.0365 38.6107 42.9499 38.8249 42.7767 38.998C42.6081 39.1712 42.3734 39.2578 42.0726 39.2578C41.7764 39.2578 41.5417 39.1712 41.3685 38.998C41.1953 38.8249 41.1088 38.6107 41.1088 38.3555ZM46.7517 39.2783H47.7361C48.1189 39.2783 48.4356 39.2122 48.6862 39.0801C48.9415 38.9479 49.1306 38.7656 49.2536 38.5332C49.3767 38.3008 49.4382 38.0342 49.4382 37.7334C49.4382 37.4189 49.3812 37.1501 49.2673 36.9268C49.1579 36.6989 48.9893 36.5234 48.7614 36.4004C48.5381 36.2773 48.2533 36.2158 47.907 36.2158C47.6153 36.2158 47.351 36.2751 47.114 36.3936C46.8816 36.5075 46.697 36.6715 46.5603 36.8857C46.4236 37.0954 46.3552 37.346 46.3552 37.6377H44.7009C44.7009 37.109 44.8399 36.6396 45.1179 36.2295C45.3959 35.8193 45.7741 35.498 46.2527 35.2656C46.7357 35.0286 47.278 34.9102 47.8796 34.9102C48.5222 34.9102 49.0827 35.0173 49.5612 35.2314C50.0443 35.4411 50.4203 35.7555 50.6892 36.1748C50.9581 36.5941 51.0925 37.1136 51.0925 37.7334C51.0925 38.016 51.0264 38.3031 50.8943 38.5947C50.7621 38.8864 50.5661 39.153 50.3064 39.3945C50.0466 39.6315 49.723 39.8252 49.3357 39.9756C48.9483 40.1214 48.4994 40.1943 47.989 40.1943H46.7517V39.2783ZM46.7517 40.5635V39.6611H47.989C48.5723 39.6611 49.0691 39.7295 49.4792 39.8662C49.8939 40.0029 50.2312 40.1921 50.4909 40.4336C50.7507 40.6706 50.9398 40.9417 51.0583 41.2471C51.1814 41.5524 51.2429 41.876 51.2429 42.2178C51.2429 42.6826 51.1586 43.0973 50.99 43.4619C50.8259 43.8219 50.5912 44.1273 50.2859 44.3779C49.9805 44.6286 49.6228 44.8177 49.2126 44.9453C48.807 45.0729 48.365 45.1367 47.8864 45.1367C47.4581 45.1367 47.0479 45.0775 46.656 44.959C46.264 44.8405 45.9131 44.665 45.6032 44.4326C45.2933 44.1956 45.0473 43.9017 44.865 43.5508C44.6872 43.1953 44.5984 42.7852 44.5984 42.3203H46.2458C46.2458 42.6165 46.3142 42.8786 46.4509 43.1064C46.5922 43.3298 46.7881 43.5052 47.0388 43.6328C47.294 43.7604 47.5857 43.8242 47.9138 43.8242C48.2601 43.8242 48.5586 43.7627 48.8093 43.6396C49.0599 43.5166 49.2514 43.3343 49.3835 43.0928C49.5202 42.8512 49.5886 42.5596 49.5886 42.2178C49.5886 41.8304 49.5134 41.516 49.363 41.2744C49.2126 41.0329 48.9984 40.8551 48.7204 40.7412C48.4424 40.6227 48.1143 40.5635 47.7361 40.5635H46.7517ZM59.5382 39.1895V40.8164C59.5382 41.5957 59.4607 42.2611 59.3057 42.8125C59.1554 43.3594 58.9366 43.8037 58.6495 44.1455C58.3624 44.4873 58.0183 44.738 57.6173 44.8975C57.2208 45.057 56.7764 45.1367 56.2843 45.1367C55.8923 45.1367 55.5277 45.0866 55.1905 44.9863C54.8578 44.8861 54.557 44.7288 54.2882 44.5146C54.0193 44.3005 53.7891 44.0247 53.5977 43.6875C53.4109 43.3457 53.2651 42.9378 53.1602 42.4639C53.06 41.9899 53.0098 41.4408 53.0098 40.8164V39.1895C53.0098 38.4056 53.0873 37.7448 53.2423 37.207C53.3972 36.6647 53.6182 36.2249 53.9054 35.8877C54.1925 35.5459 54.5343 35.2975 54.9307 35.1426C55.3318 34.9876 55.7784 34.9102 56.2706 34.9102C56.6671 34.9102 57.0317 34.9603 57.3643 35.0605C57.7016 35.1562 58.0024 35.3089 58.2667 35.5186C58.5356 35.7282 58.7634 36.0016 58.9503 36.3389C59.1417 36.6715 59.2875 37.0749 59.3878 37.5488C59.488 38.0182 59.5382 38.5651 59.5382 39.1895ZM57.8907 41.0488V38.9434C57.8907 38.5469 57.8679 38.1982 57.8223 37.8975C57.7768 37.5921 57.7084 37.3346 57.6173 37.125C57.5307 36.9108 57.4213 36.7376 57.2891 36.6055C57.157 36.4688 57.0066 36.3708 56.838 36.3115C56.6693 36.2477 56.4802 36.2158 56.2706 36.2158C56.0154 36.2158 55.7875 36.266 55.587 36.3662C55.3865 36.4619 55.2179 36.6169 55.0811 36.8311C54.9444 37.0452 54.8396 37.3278 54.7667 37.6787C54.6983 38.0251 54.6641 38.4466 54.6641 38.9434V41.0488C54.6641 41.4499 54.6869 41.8031 54.7325 42.1084C54.7781 42.4137 54.8464 42.6758 54.9376 42.8945C55.0287 43.1087 55.1381 43.2865 55.2657 43.4277C55.3979 43.5645 55.5483 43.6647 55.7169 43.7285C55.8901 43.7923 56.0792 43.8242 56.2843 43.8242C56.544 43.8242 56.7742 43.7741 56.9747 43.6738C57.1752 43.5736 57.3438 43.4141 57.4805 43.1953C57.6173 42.972 57.7198 42.6826 57.7882 42.3271C57.8565 41.9717 57.8907 41.5456 57.8907 41.0488Z" fill="#1C1B1F"/>
<path opacity="0.1" d="M358.5 34.4166C355.1 34.4166 352.125 35.9041 350 38.2416L358.5 48.5833L367 38.2416C364.875 35.9041 361.9 34.4166 358.5 34.4166Z" fill="#1C1B1F"/>
<path d="M381.583 34.4166L367.417 48.5833H381.583V34.4166V34.4166Z" fill="#1C1B1F"/>
<path opacity="0.3" d="M393.5 34H390.5V35.5H389C388.448 35.5 388 36.0037 388 36.625V47.875C388 48.4963 388.448 49 389 49H395C395.552 49 396 48.4963 396 47.875V36.625C396 36.0037 395.552 35.5 395 35.5H393.5V34Z" fill="#1C1B1F"/>
<path d="M388 42C388 42.5833 388 47.3667 388 47.95C388 48.5299 388.448 49 389 49H395C395.552 49 396 48.5299 396 47.95C396 47.3667 396 42.5833 396 42H388Z" fill="#1C1B1F"/>
<rect x="178" y="890" width="72" height="2" rx="1" fill="#1C1B1F"/>
</g>
<rect x="4" y="4" width="420" height="900" rx="22" stroke="#747775" stroke-opacity="0.5" stroke-width="8"/>
<path d="M284.5 851.75L293.25 843L284.5 834.25V851.75Z" fill="#1A1A1A"/>
<path d="M143.5 834.25L134.75 843L143.5 851.75V834.25Z" fill="#1A1A1A"/>
<path d="M207.875 837.12L217.098 843L207.875 848.88V837.12ZM204.375 830.75V855.25L223.625 843L204.375 830.75Z" fill="#1A1A1A"/>
<path d="M368.035 817.098C367.82 817.098 367.657 817.042 367.545 816.93C367.433 816.809 367.377 816.641 367.377 816.426V808.236H364.311C364.133 808.236 363.993 808.189 363.891 808.096C363.788 807.993 363.737 807.853 363.737 807.676C363.737 807.499 363.788 807.363 363.891 807.27C363.993 807.177 364.133 807.13 364.311 807.13H371.745C371.931 807.13 372.071 807.177 372.165 807.27C372.267 807.363 372.319 807.499 372.319 807.676C372.319 807.853 372.267 807.993 372.165 808.096C372.071 808.189 371.931 808.236 371.745 808.236H368.679V816.426C368.679 816.641 368.623 816.809 368.511 816.93C368.408 817.042 368.249 817.098 368.035 817.098ZM375.262 817.126C374.59 817.126 374.007 816.981 373.512 816.692C373.018 816.403 372.635 815.992 372.364 815.46C372.094 814.928 371.958 814.303 371.958 813.584C371.958 813.043 372.033 812.557 372.182 812.128C372.341 811.689 372.565 811.316 372.854 811.008C373.144 810.7 373.489 810.467 373.89 810.308C374.301 810.14 374.758 810.056 375.262 810.056C375.934 810.056 376.518 810.201 377.012 810.49C377.507 810.779 377.89 811.19 378.16 811.722C378.431 812.245 378.566 812.865 378.566 813.584C378.566 814.125 378.487 814.615 378.328 815.054C378.179 815.493 377.96 815.866 377.67 816.174C377.381 816.482 377.031 816.72 376.62 816.888C376.219 817.047 375.766 817.126 375.262 817.126ZM375.262 816.118C375.673 816.118 376.028 816.02 376.326 815.824C376.634 815.628 376.868 815.343 377.026 814.97C377.194 814.597 377.278 814.135 377.278 813.584C377.278 812.763 377.096 812.137 376.732 811.708C376.368 811.279 375.878 811.064 375.262 811.064C374.861 811.064 374.506 811.162 374.198 811.358C373.9 811.545 373.666 811.825 373.498 812.198C373.33 812.571 373.246 813.033 373.246 813.584C373.246 814.405 373.428 815.035 373.792 815.474C374.166 815.903 374.656 816.118 375.262 816.118ZM383.098 817.126C382.547 817.126 382.085 817.028 381.712 816.832C381.348 816.636 381.073 816.351 380.886 815.978C380.709 815.605 380.62 815.147 380.62 814.606V811.162H379.724C379.556 811.162 379.425 811.12 379.332 811.036C379.239 810.943 379.192 810.821 379.192 810.672C379.192 810.513 379.239 810.392 379.332 810.308C379.425 810.224 379.556 810.182 379.724 810.182H380.62V808.656C380.62 808.441 380.676 808.283 380.788 808.18C380.9 808.068 381.059 808.012 381.264 808.012C381.469 808.012 381.623 808.068 381.726 808.18C381.838 808.283 381.894 808.441 381.894 808.656V810.182H383.588C383.765 810.182 383.901 810.224 383.994 810.308C384.087 810.392 384.134 810.513 384.134 810.672C384.134 810.821 384.087 810.943 383.994 811.036C383.901 811.12 383.765 811.162 383.588 811.162H381.894V814.494C381.894 815.007 382.001 815.395 382.216 815.656C382.431 815.917 382.785 816.048 383.28 816.048C383.457 816.048 383.607 816.034 383.728 816.006C383.849 815.969 383.957 815.95 384.05 815.95C384.134 815.941 384.204 815.969 384.26 816.034C384.325 816.099 384.358 816.221 384.358 816.398C384.358 816.529 384.335 816.65 384.288 816.762C384.251 816.865 384.171 816.935 384.05 816.972C383.938 817.009 383.789 817.042 383.602 817.07C383.415 817.107 383.247 817.126 383.098 817.126ZM387.598 817.126C387.131 817.126 386.706 817.033 386.324 816.846C385.95 816.659 385.656 816.407 385.442 816.09C385.236 815.773 385.134 815.418 385.134 815.026C385.134 814.522 385.26 814.125 385.512 813.836C385.764 813.547 386.188 813.341 386.786 813.22C387.383 813.089 388.186 813.024 389.194 813.024H389.852V813.836H389.222C388.503 813.836 387.934 813.869 387.514 813.934C387.103 813.999 386.814 814.116 386.646 814.284C386.478 814.443 386.394 814.667 386.394 814.956C386.394 815.32 386.52 815.619 386.772 815.852C387.033 816.085 387.388 816.202 387.836 816.202C388.19 816.202 388.503 816.118 388.774 815.95C389.044 815.773 389.259 815.539 389.418 815.25C389.576 814.951 389.656 814.611 389.656 814.228V812.618C389.656 812.067 389.544 811.671 389.32 811.428C389.096 811.176 388.718 811.05 388.186 811.05C387.878 811.05 387.56 811.092 387.234 811.176C386.907 811.26 386.566 811.391 386.212 811.568C386.072 811.633 385.95 811.657 385.848 811.638C385.745 811.61 385.661 811.554 385.596 811.47C385.54 811.377 385.507 811.279 385.498 811.176C385.498 811.064 385.521 810.957 385.568 810.854C385.624 810.751 385.717 810.677 385.848 810.63C386.258 810.425 386.664 810.28 387.066 810.196C387.476 810.103 387.859 810.056 388.214 810.056C388.82 810.056 389.32 810.154 389.712 810.35C390.104 810.537 390.398 810.831 390.594 811.232C390.79 811.624 390.888 812.128 390.888 812.744V816.44C390.888 816.655 390.836 816.818 390.734 816.93C390.631 817.042 390.482 817.098 390.286 817.098C390.099 817.098 389.95 817.042 389.838 816.93C389.735 816.818 389.684 816.655 389.684 816.44V815.446H389.81C389.735 815.791 389.595 816.09 389.39 816.342C389.184 816.594 388.928 816.79 388.62 816.93C388.321 817.061 387.98 817.126 387.598 817.126ZM395.174 817.126C394.474 817.126 393.942 816.921 393.578 816.51C393.214 816.09 393.032 815.488 393.032 814.704V807.676C393.032 807.461 393.088 807.303 393.2 807.2C393.312 807.088 393.466 807.032 393.662 807.032C393.868 807.032 394.026 807.088 394.138 807.2C394.25 807.303 394.306 807.461 394.306 807.676V814.606C394.306 815.091 394.404 815.455 394.6 815.698C394.806 815.931 395.095 816.048 395.468 816.048C395.552 816.048 395.627 816.048 395.692 816.048C395.758 816.039 395.823 816.029 395.888 816.02C395.991 816.011 396.066 816.039 396.112 816.104C396.159 816.169 396.182 816.3 396.182 816.496C396.182 816.673 396.14 816.813 396.056 816.916C395.982 817.009 395.856 817.07 395.678 817.098C395.594 817.107 395.51 817.112 395.426 817.112C395.342 817.121 395.258 817.126 395.174 817.126Z" fill="#1A1A1A"/>
<path d="M372.262 848.112C372.081 848.112 371.953 848.053 371.878 847.936C371.804 847.819 371.788 847.653 371.83 847.44L372.294 845.008L372.806 845.12H371.494C371.366 845.12 371.254 845.104 371.158 845.072C371.062 845.029 370.988 844.971 370.934 844.896C370.892 844.821 370.87 844.725 370.87 844.608C370.87 844.448 370.924 844.325 371.03 844.24C371.148 844.155 371.302 844.112 371.494 844.112H372.998L372.438 844.224L373.206 840.336L373.606 840.48H371.814C371.686 840.48 371.574 840.459 371.478 840.416C371.382 840.373 371.308 840.315 371.254 840.24C371.212 840.165 371.19 840.075 371.19 839.968C371.19 839.797 371.244 839.675 371.35 839.6C371.468 839.515 371.622 839.472 371.814 839.472H373.798L373.334 839.6L373.814 837.152C373.846 836.96 373.916 836.821 374.022 836.736C374.14 836.651 374.284 836.608 374.454 836.608C374.625 836.608 374.748 836.667 374.822 836.784C374.897 836.901 374.918 837.067 374.886 837.28L374.454 839.472H376.87L377.334 837.152C377.366 836.96 377.436 836.821 377.542 836.736C377.66 836.651 377.804 836.608 377.974 836.608C378.156 836.608 378.284 836.667 378.358 836.784C378.433 836.901 378.449 837.067 378.406 837.28L377.958 839.6L377.558 839.472H378.758C378.897 839.472 379.009 839.493 379.094 839.536C379.19 839.568 379.26 839.621 379.302 839.696C379.356 839.76 379.382 839.851 379.382 839.968C379.382 840.128 379.329 840.256 379.222 840.352C379.116 840.437 378.961 840.48 378.758 840.48H377.35L377.814 840.336L377.046 844.24L376.646 844.112H378.438C378.566 844.112 378.678 844.133 378.774 844.176C378.87 844.208 378.94 844.261 378.982 844.336C379.036 844.411 379.062 844.501 379.062 844.608C379.062 844.779 379.009 844.907 378.902 844.992C378.796 845.077 378.641 845.12 378.438 845.12H376.454L376.918 845.008L376.406 847.568C376.374 847.76 376.305 847.899 376.198 847.984C376.092 848.069 375.953 848.112 375.782 848.112C375.601 848.112 375.468 848.053 375.382 847.936C375.308 847.819 375.292 847.653 375.334 847.44L375.798 845.12H373.382L372.902 847.568C372.87 847.76 372.801 847.899 372.694 847.984C372.588 848.069 372.444 848.112 372.262 848.112ZM373.558 844.112H375.974L376.678 840.48H374.278L373.558 844.112ZM382.016 848.112C381.835 848.112 381.707 848.053 381.632 847.936C381.557 847.819 381.541 847.653 381.584 847.44L382.048 845.008L382.56 845.12H381.248C381.12 845.12 381.008 845.104 380.912 845.072C380.816 845.029 380.741 844.971 380.688 844.896C380.645 844.821 380.624 844.725 380.624 844.608C380.624 844.448 380.677 844.325 380.784 844.24C380.901 844.155 381.056 844.112 381.248 844.112H382.752L382.192 844.224L382.96 840.336L383.36 840.48H381.568C381.44 840.48 381.328 840.459 381.232 840.416C381.136 840.373 381.061 840.315 381.008 840.24C380.965 840.165 380.944 840.075 380.944 839.968C380.944 839.797 380.997 839.675 381.104 839.6C381.221 839.515 381.376 839.472 381.568 839.472H383.552L383.088 839.6L383.568 837.152C383.6 836.96 383.669 836.821 383.776 836.736C383.893 836.651 384.037 836.608 384.208 836.608C384.379 836.608 384.501 836.667 384.576 836.784C384.651 836.901 384.672 837.067 384.64 837.28L384.208 839.472H386.624L387.088 837.152C387.12 836.96 387.189 836.821 387.296 836.736C387.413 836.651 387.557 836.608 387.728 836.608C387.909 836.608 388.037 836.667 388.112 836.784C388.187 836.901 388.203 837.067 388.16 837.28L387.712 839.6L387.312 839.472H388.512C388.651 839.472 388.763 839.493 388.848 839.536C388.944 839.568 389.013 839.621 389.056 839.696C389.109 839.76 389.136 839.851 389.136 839.968C389.136 840.128 389.083 840.256 388.976 840.352C388.869 840.437 388.715 840.48 388.512 840.48H387.104L387.568 840.336L386.8 844.24L386.4 844.112H388.192C388.32 844.112 388.432 844.133 388.528 844.176C388.624 844.208 388.693 844.261 388.736 844.336C388.789 844.411 388.816 844.501 388.816 844.608C388.816 844.779 388.763 844.907 388.656 844.992C388.549 845.077 388.395 845.12 388.192 845.12H386.208L386.672 845.008L386.16 847.568C386.128 847.76 386.059 847.899 385.952 847.984C385.845 848.069 385.707 848.112 385.536 848.112C385.355 848.112 385.221 848.053 385.136 847.936C385.061 847.819 385.045 847.653 385.088 847.44L385.552 845.12H383.136L382.656 847.568C382.624 847.76 382.555 847.899 382.448 847.984C382.341 848.069 382.197 848.112 382.016 848.112ZM383.312 844.112H385.728L386.432 840.48H384.032L383.312 844.112Z" fill="#1A1A1A"/>
<path d="M37.5851 817.126C37.1464 817.126 36.7218 817.089 36.3111 817.014C35.9004 816.949 35.5131 816.846 35.1491 816.706C34.7851 816.566 34.4584 816.393 34.1691 816.188C34.0478 816.104 33.9591 816.001 33.9031 815.88C33.8564 815.759 33.8424 815.642 33.8611 815.53C33.8891 815.409 33.9404 815.306 34.0151 815.222C34.0991 815.138 34.1971 815.087 34.3091 815.068C34.4211 815.049 34.5424 815.087 34.6731 815.18C35.1024 815.469 35.5504 815.679 36.0171 815.81C36.4931 815.941 37.0158 816.006 37.5851 816.006C38.4064 816.006 39.0084 815.857 39.3911 815.558C39.7831 815.259 39.9791 814.867 39.9791 814.382C39.9791 813.981 39.8391 813.668 39.5591 813.444C39.2791 813.211 38.8078 813.029 38.1451 812.898L36.6611 812.59C35.7838 812.403 35.1258 812.095 34.6871 811.666C34.2578 811.237 34.0431 810.663 34.0431 809.944C34.0431 809.505 34.1318 809.109 34.3091 808.754C34.4864 808.39 34.7384 808.077 35.0651 807.816C35.3918 807.555 35.7744 807.354 36.2131 807.214C36.6611 807.074 37.1558 807.004 37.6971 807.004C38.2758 807.004 38.8171 807.083 39.3211 807.242C39.8344 807.401 40.2964 807.634 40.7071 807.942C40.8191 808.026 40.8938 808.129 40.9311 808.25C40.9684 808.362 40.9731 808.474 40.9451 808.586C40.9264 808.698 40.8751 808.791 40.7911 808.866C40.7164 808.941 40.6184 808.983 40.4971 808.992C40.3851 809.001 40.2591 808.959 40.1191 808.866C39.7458 808.605 39.3631 808.418 38.9711 808.306C38.5791 808.185 38.1498 808.124 37.6831 808.124C37.2071 808.124 36.7918 808.199 36.4371 808.348C36.0918 808.497 35.8211 808.707 35.6251 808.978C35.4384 809.239 35.3451 809.547 35.3451 809.902C35.3451 810.331 35.4758 810.667 35.7371 810.91C35.9984 811.153 36.4371 811.339 37.0531 811.47L38.5231 811.764C39.4564 811.96 40.1471 812.263 40.5951 812.674C41.0524 813.075 41.2811 813.617 41.2811 814.298C41.2811 814.727 41.1924 815.115 41.0151 815.46C40.8471 815.805 40.6044 816.104 40.2871 816.356C39.9698 816.599 39.5824 816.79 39.1251 816.93C38.6678 817.061 38.1544 817.126 37.5851 817.126ZM45.7644 817.126C45.2137 817.126 44.7517 817.028 44.3784 816.832C44.0144 816.636 43.739 816.351 43.5524 815.978C43.375 815.605 43.2864 815.147 43.2864 814.606V811.162H42.3904C42.2224 811.162 42.0917 811.12 41.9984 811.036C41.905 810.943 41.8584 810.821 41.8584 810.672C41.8584 810.513 41.905 810.392 41.9984 810.308C42.0917 810.224 42.2224 810.182 42.3904 810.182H43.2864V808.656C43.2864 808.441 43.3424 808.283 43.4544 808.18C43.5664 808.068 43.725 808.012 43.9304 808.012C44.1357 808.012 44.2897 808.068 44.3924 808.18C44.5044 808.283 44.5604 808.441 44.5604 808.656V810.182H46.2544C46.4317 810.182 46.567 810.224 46.6604 810.308C46.7537 810.392 46.8004 810.513 46.8004 810.672C46.8004 810.821 46.7537 810.943 46.6604 811.036C46.567 811.12 46.4317 811.162 46.2544 811.162H44.5604V814.494C44.5604 815.007 44.6677 815.395 44.8824 815.656C45.097 815.917 45.4517 816.048 45.9464 816.048C46.1237 816.048 46.273 816.034 46.3944 816.006C46.5157 815.969 46.623 815.95 46.7164 815.95C46.8004 815.941 46.8704 815.969 46.9264 816.034C46.9917 816.099 47.0244 816.221 47.0244 816.398C47.0244 816.529 47.001 816.65 46.9544 816.762C46.917 816.865 46.8377 816.935 46.7164 816.972C46.6044 817.009 46.455 817.042 46.2684 817.07C46.0817 817.107 45.9137 817.126 45.7644 817.126ZM51.1756 817.126C50.4383 817.126 49.8036 816.986 49.2716 816.706C48.7489 816.417 48.3429 816.011 48.0536 815.488C47.7643 814.956 47.6196 814.331 47.6196 813.612C47.6196 812.903 47.7596 812.282 48.0396 811.75C48.3289 811.218 48.7209 810.803 49.2156 810.504C49.7196 810.205 50.2936 810.056 50.9376 810.056C51.3949 810.056 51.8056 810.135 52.1696 810.294C52.5429 810.443 52.8603 810.663 53.1216 810.952C53.3829 811.241 53.5789 811.596 53.7096 812.016C53.8496 812.427 53.9196 812.893 53.9196 813.416C53.9196 813.565 53.8729 813.682 53.7796 813.766C53.6956 813.841 53.5696 813.878 53.4016 813.878H48.6136V813.066H53.0796L52.8416 813.262C52.8416 812.777 52.7669 812.366 52.6176 812.03C52.4776 811.685 52.2676 811.423 51.9876 811.246C51.7169 811.069 51.3763 810.98 50.9656 810.98C50.5176 810.98 50.1349 811.087 49.8176 811.302C49.5003 811.507 49.2576 811.801 49.0896 812.184C48.9216 812.557 48.8376 812.991 48.8376 813.486V813.57C48.8376 814.41 49.0383 815.045 49.4396 815.474C49.8409 815.903 50.4196 816.118 51.1756 816.118C51.4743 816.118 51.7776 816.081 52.0856 816.006C52.4029 815.931 52.7063 815.796 52.9956 815.6C53.1356 815.516 53.2616 815.479 53.3736 815.488C53.4949 815.488 53.5929 815.525 53.6676 815.6C53.7423 815.665 53.7889 815.749 53.8076 815.852C53.8263 815.945 53.8123 816.048 53.7656 816.16C53.7189 816.272 53.6303 816.37 53.4996 816.454C53.1916 816.669 52.8229 816.837 52.3936 816.958C51.9736 817.07 51.5676 817.126 51.1756 817.126ZM56.2741 819.618C56.0781 819.618 55.9241 819.562 55.8121 819.45C55.7001 819.338 55.6441 819.179 55.6441 818.974V810.728C55.6441 810.513 55.7001 810.355 55.8121 810.252C55.9241 810.14 56.0781 810.084 56.2741 810.084C56.4794 810.084 56.6334 810.14 56.7361 810.252C56.8481 810.355 56.9041 810.513 56.9041 810.728V812.002L56.7501 811.75C56.8994 811.237 57.1934 810.826 57.6321 810.518C58.0708 810.21 58.5981 810.056 59.2141 810.056C59.8208 810.056 60.3481 810.201 60.7961 810.49C61.2441 810.77 61.5941 811.176 61.8461 811.708C62.0981 812.231 62.2241 812.856 62.2241 813.584C62.2241 814.303 62.0981 814.933 61.8461 815.474C61.6034 816.006 61.2534 816.417 60.7961 816.706C60.3481 816.986 59.8208 817.126 59.2141 817.126C58.6074 817.126 58.0848 816.972 57.6461 816.664C57.2074 816.356 56.9134 815.95 56.7641 815.446H56.9181V818.974C56.9181 819.179 56.8621 819.338 56.7501 819.45C56.6381 819.562 56.4794 819.618 56.2741 819.618ZM58.9201 816.118C59.3214 816.118 59.6714 816.02 59.9701 815.824C60.2781 815.628 60.5161 815.343 60.6841 814.97C60.8521 814.597 60.9361 814.135 60.9361 813.584C60.9361 812.763 60.7541 812.137 60.3901 811.708C60.0261 811.279 59.5361 811.064 58.9201 811.064C58.5094 811.064 58.1501 811.162 57.8421 811.358C57.5434 811.545 57.3101 811.825 57.1421 812.198C56.9834 812.571 56.9041 813.033 56.9041 813.584C56.9041 814.405 57.0861 815.035 57.4501 815.474C57.8141 815.903 58.3041 816.118 58.9201 816.118Z" fill="#1A1A1A"/>
<rect x="27" y="822" width="42" height="42" fill="#EDCCFF"/>
<path d="M40.8063 848C40.6036 848 40.4436 847.941 40.3263 847.824C40.2089 847.707 40.1503 847.552 40.1503 847.36C40.1503 847.157 40.2089 847.003 40.3263 846.896C40.4436 846.789 40.6036 846.736 40.8063 846.736H42.8223V837.952H43.5903L41.2543 839.456C41.1049 839.552 40.9609 839.595 40.8223 839.584C40.6943 839.563 40.5823 839.509 40.4863 839.424C40.3903 839.328 40.3263 839.216 40.2943 839.088C40.2623 838.96 40.2676 838.832 40.3103 838.704C40.3636 838.565 40.4703 838.453 40.6303 838.368L42.8383 836.928C42.9983 836.832 43.1476 836.757 43.2863 836.704C43.4356 836.64 43.5796 836.608 43.7183 836.608C43.8783 836.608 44.0169 836.656 44.1343 836.752C44.2516 836.848 44.3103 837.003 44.3103 837.216V846.736H46.1663C46.3796 846.736 46.5396 846.789 46.6463 846.896C46.7636 847.003 46.8223 847.157 46.8223 847.36C46.8223 847.563 46.7636 847.723 46.6463 847.84C46.5396 847.947 46.3796 848 46.1663 848H40.8063ZM50.16 848C49.904 848 49.712 847.941 49.584 847.824C49.4667 847.696 49.408 847.525 49.408 847.312C49.408 847.184 49.44 847.056 49.504 846.928C49.568 846.8 49.664 846.672 49.792 846.544L53.296 842.784C53.8293 842.219 54.2133 841.696 54.448 841.216C54.6827 840.736 54.8 840.251 54.8 839.76C54.8 839.141 54.608 838.672 54.224 838.352C53.8507 838.021 53.3013 837.856 52.576 837.856C52.128 837.856 51.696 837.931 51.28 838.08C50.8747 838.219 50.4747 838.437 50.08 838.736C49.9307 838.843 49.792 838.891 49.664 838.88C49.536 838.869 49.424 838.821 49.328 838.736C49.2427 838.64 49.1787 838.533 49.136 838.416C49.104 838.288 49.1093 838.155 49.152 838.016C49.1947 837.877 49.2853 837.76 49.424 837.664C49.8613 837.323 50.368 837.056 50.944 836.864C51.52 836.672 52.112 836.576 52.72 836.576C53.488 836.576 54.1333 836.699 54.656 836.944C55.1893 837.179 55.5947 837.525 55.872 837.984C56.1493 838.432 56.288 838.981 56.288 839.632C56.288 840.08 56.2133 840.523 56.064 840.96C55.9147 841.387 55.6907 841.824 55.392 842.272C55.104 842.72 54.7307 843.184 54.272 843.664L50.944 847.168V846.736H56.192C56.4053 846.736 56.5653 846.789 56.672 846.896C56.7893 847.003 56.848 847.157 56.848 847.36C56.848 847.563 56.7893 847.723 56.672 847.84C56.5653 847.947 56.4053 848 56.192 848H50.16Z" fill="#1A1A1A"/>
<rect width="412" height="64" transform="translate(8 60)" fill="#FFBA61"/>
<g clip-path="url(#clip1_1_809)">
<path fill-rule="evenodd" clip-rule="evenodd" d="M27 88V86H45V88H27ZM27 93H45V91H27V93ZM27 98H45V96H27V98Z" fill="#1A1A1A"/>
</g>
<path d="M111.011 103.96C110.747 103.96 110.52 103.865 110.329 103.674C110.153 103.498 110.065 103.278 110.065 103.014V85.436C110.065 85.1573 110.153 84.93 110.329 84.754C110.52 84.578 110.747 84.49 111.011 84.49H114.091C114.355 84.49 114.568 84.5707 114.729 84.732C114.891 84.8933 114.971 85.0987 114.971 85.348C114.971 85.5827 114.891 85.788 114.729 85.964C114.568 86.1253 114.355 86.206 114.091 86.206H112.287V102.244H114.091C114.355 102.244 114.568 102.325 114.729 102.486C114.891 102.662 114.971 102.867 114.971 103.102C114.971 103.351 114.891 103.557 114.729 103.718C114.568 103.879 114.355 103.96 114.091 103.96H111.011ZM118.052 100C117.656 100 117.348 99.8973 117.128 99.692C116.922 99.472 116.82 99.164 116.82 98.768V85.722C116.82 85.326 116.922 85.0253 117.128 84.82C117.348 84.6 117.656 84.49 118.052 84.49H122.298C124.85 84.49 126.815 85.1573 128.194 86.492C129.587 87.812 130.284 89.726 130.284 92.234C130.284 93.4807 130.108 94.588 129.756 95.556C129.404 96.524 128.883 97.338 128.194 97.998C127.519 98.6433 126.69 99.142 125.708 99.494C124.725 99.8313 123.588 100 122.298 100H118.052ZM119.108 98.086H122.166C123.134 98.086 123.97 97.9687 124.674 97.734C125.392 97.4847 125.994 97.118 126.478 96.634C126.962 96.15 127.321 95.5413 127.556 94.808C127.79 94.0747 127.908 93.2167 127.908 92.234C127.908 90.2833 127.424 88.824 126.456 87.856C125.502 86.888 124.072 86.404 122.166 86.404H119.108V98.086ZM134.221 100.154C133.854 100.154 133.576 100.059 133.385 99.868C133.194 99.6627 133.099 99.384 133.099 99.032V90.232C133.099 89.8653 133.194 89.5867 133.385 89.396C133.576 89.2053 133.84 89.11 134.177 89.11C134.529 89.11 134.793 89.2053 134.969 89.396C135.16 89.5867 135.255 89.8653 135.255 90.232V91.838H135.035C135.27 90.958 135.702 90.2907 136.333 89.836C136.964 89.3813 137.77 89.1173 138.753 89.044C139.017 89.0293 139.222 89.0953 139.369 89.242C139.53 89.3887 139.618 89.616 139.633 89.924C139.662 90.232 139.596 90.4813 139.435 90.672C139.274 90.848 139.024 90.9507 138.687 90.98L138.269 91.024C137.316 91.112 136.59 91.4127 136.091 91.926C135.592 92.4393 135.343 93.1433 135.343 94.038V99.032C135.343 99.384 135.248 99.6627 135.057 99.868C134.881 100.059 134.602 100.154 134.221 100.154ZM144.631 100.198C143.883 100.198 143.208 100.051 142.607 99.758C142.02 99.4647 141.558 99.0687 141.221 98.57C140.883 98.0713 140.715 97.5067 140.715 96.876C140.715 96.084 140.913 95.4607 141.309 95.006C141.719 94.5367 142.387 94.2067 143.311 94.016C144.249 93.8107 145.511 93.708 147.095 93.708H148.129V95.072H147.117C146.061 95.072 145.225 95.1233 144.609 95.226C143.993 95.3287 143.553 95.5047 143.289 95.754C143.039 95.9887 142.915 96.3187 142.915 96.744C142.915 97.3013 143.105 97.756 143.487 98.108C143.868 98.4453 144.396 98.614 145.071 98.614C145.613 98.614 146.09 98.4893 146.501 98.24C146.911 97.976 147.234 97.624 147.469 97.184C147.718 96.744 147.843 96.238 147.843 95.666V93.136C147.843 92.3 147.667 91.6987 147.315 91.332C146.963 90.9653 146.383 90.782 145.577 90.782C145.107 90.782 144.616 90.8407 144.103 90.958C143.604 91.0753 143.083 91.2733 142.541 91.552C142.291 91.6693 142.079 91.706 141.903 91.662C141.727 91.618 141.587 91.5227 141.485 91.376C141.382 91.2147 141.323 91.046 141.309 90.87C141.309 90.6793 141.353 90.496 141.441 90.32C141.543 90.144 141.712 90.012 141.947 89.924C142.592 89.616 143.23 89.396 143.861 89.264C144.491 89.132 145.085 89.066 145.643 89.066C146.625 89.066 147.432 89.22 148.063 89.528C148.708 89.836 149.185 90.3053 149.493 90.936C149.801 91.5667 149.955 92.3807 149.955 93.378V99.032C149.955 99.384 149.867 99.6627 149.691 99.868C149.515 100.059 149.258 100.154 148.921 100.154C148.598 100.154 148.341 100.059 148.151 99.868C147.96 99.6627 147.865 99.384 147.865 99.032V97.602H148.063C147.945 98.1447 147.725 98.614 147.403 99.01C147.095 99.3913 146.706 99.6847 146.237 99.89C145.767 100.095 145.232 100.198 144.631 100.198ZM156.824 100.154C156.516 100.154 156.244 100.081 156.01 99.934C155.79 99.7727 155.614 99.5233 155.482 99.186L152.248 90.628C152.13 90.3347 152.094 90.078 152.138 89.858C152.182 89.6233 152.292 89.44 152.468 89.308C152.658 89.176 152.9 89.11 153.194 89.11C153.458 89.11 153.67 89.176 153.832 89.308C154.008 89.4253 154.154 89.66 154.272 90.012L157.154 98.13H156.626L159.618 89.924C159.72 89.6453 159.86 89.44 160.036 89.308C160.212 89.176 160.439 89.11 160.718 89.11C160.996 89.11 161.224 89.176 161.4 89.308C161.59 89.44 161.73 89.6453 161.818 89.924L164.744 98.13H164.26L167.186 89.968C167.303 89.6307 167.45 89.4033 167.626 89.286C167.816 89.1687 168.029 89.11 168.264 89.11C168.557 89.11 168.777 89.1833 168.924 89.33C169.085 89.4767 169.173 89.6673 169.188 89.902C169.217 90.122 169.18 90.364 169.078 90.628L165.844 99.186C165.712 99.5087 165.528 99.7507 165.294 99.912C165.074 100.073 164.817 100.154 164.524 100.154C164.216 100.154 163.944 100.073 163.71 99.912C163.49 99.7507 163.314 99.5087 163.182 99.186L160.102 90.848H161.202L158.144 99.186C158.026 99.5087 157.85 99.7507 157.616 99.912C157.396 100.073 157.132 100.154 156.824 100.154ZM172.613 100.132C172.261 100.132 171.99 100.029 171.799 99.824C171.609 99.604 171.513 99.3033 171.513 98.922V90.342C171.513 89.9607 171.609 89.6673 171.799 89.462C171.99 89.2567 172.261 89.154 172.613 89.154C172.965 89.154 173.237 89.2567 173.427 89.462C173.633 89.6673 173.735 89.9607 173.735 90.342V98.922C173.735 99.3033 173.64 99.604 173.449 99.824C173.259 100.029 172.98 100.132 172.613 100.132ZM172.613 86.866C172.173 86.866 171.829 86.756 171.579 86.536C171.345 86.316 171.227 86.008 171.227 85.612C171.227 85.2013 171.345 84.8933 171.579 84.688C171.829 84.468 172.173 84.358 172.613 84.358C173.053 84.358 173.391 84.468 173.625 84.688C173.875 84.8933 173.999 85.2013 173.999 85.612C173.999 86.008 173.875 86.316 173.625 86.536C173.391 86.756 173.053 86.866 172.613 86.866ZM177.963 100.154C177.611 100.154 177.339 100.059 177.149 99.868C176.958 99.6627 176.863 99.384 176.863 99.032V90.232C176.863 89.8653 176.958 89.5867 177.149 89.396C177.339 89.2053 177.603 89.11 177.941 89.11C178.293 89.11 178.557 89.2053 178.733 89.396C178.923 89.5867 179.019 89.8653 179.019 90.232V91.948L178.777 91.552C179.099 90.7307 179.605 90.1147 180.295 89.704C180.984 89.2787 181.776 89.066 182.671 89.066C183.521 89.066 184.225 89.2273 184.783 89.55C185.355 89.858 185.78 90.3347 186.059 90.98C186.337 91.6107 186.477 92.41 186.477 93.378V99.032C186.477 99.384 186.381 99.6627 186.191 99.868C186 100.059 185.729 100.154 185.377 100.154C185.01 100.154 184.731 100.059 184.541 99.868C184.35 99.6627 184.255 99.384 184.255 99.032V93.51C184.255 92.586 184.071 91.9113 183.705 91.486C183.353 91.0607 182.795 90.848 182.033 90.848C181.138 90.848 180.419 91.1267 179.877 91.684C179.349 92.2413 179.085 92.9893 179.085 93.928V99.032C179.085 99.78 178.711 100.154 177.963 100.154ZM194.401 104.158C193.609 104.158 192.839 104.077 192.091 103.916C191.357 103.755 190.69 103.491 190.089 103.124C189.869 103.007 189.722 102.86 189.649 102.684C189.575 102.523 189.553 102.354 189.583 102.178C189.627 102.002 189.707 101.848 189.825 101.716C189.942 101.584 190.081 101.496 190.243 101.452C190.419 101.408 190.602 101.437 190.793 101.54C191.438 101.892 192.047 102.127 192.619 102.244C193.205 102.376 193.748 102.442 194.247 102.442C195.273 102.442 196.043 102.178 196.557 101.65C197.07 101.137 197.327 100.374 197.327 99.362V97.118H197.525C197.305 97.9247 196.843 98.5627 196.139 99.032C195.435 99.5013 194.621 99.736 193.697 99.736C192.729 99.736 191.885 99.516 191.167 99.076C190.448 98.6213 189.891 97.998 189.495 97.206C189.099 96.3993 188.901 95.4607 188.901 94.39C188.901 93.5833 189.011 92.8573 189.231 92.212C189.465 91.5667 189.788 91.0093 190.199 90.54C190.624 90.0707 191.13 89.7113 191.717 89.462C192.318 89.198 192.978 89.066 193.697 89.066C194.635 89.066 195.449 89.3007 196.139 89.77C196.843 90.2393 197.297 90.8773 197.503 91.684L197.283 92.058V90.232C197.283 89.8653 197.378 89.5867 197.569 89.396C197.774 89.2053 198.045 89.11 198.383 89.11C198.735 89.11 199.006 89.2053 199.197 89.396C199.387 89.5867 199.483 89.8653 199.483 90.232V99.098C199.483 100.77 199.05 102.031 198.185 102.882C197.319 103.733 196.058 104.158 194.401 104.158ZM194.225 97.998C194.87 97.998 195.42 97.8513 195.875 97.558C196.329 97.2647 196.681 96.8467 196.931 96.304C197.18 95.7613 197.305 95.1233 197.305 94.39C197.305 93.29 197.026 92.4173 196.469 91.772C195.926 91.1267 195.178 90.804 194.225 90.804C193.594 90.804 193.051 90.9507 192.597 91.244C192.142 91.5373 191.783 91.9553 191.519 92.498C191.269 93.026 191.145 93.6567 191.145 94.39C191.145 95.5047 191.423 96.3847 191.981 97.03C192.538 97.6753 193.286 97.998 194.225 97.998ZM202.579 100.704C202.506 100.939 202.388 101.107 202.227 101.21C202.066 101.313 201.89 101.364 201.699 101.364C201.508 101.364 201.332 101.313 201.171 101.21C201.024 101.122 200.922 100.99 200.863 100.814C200.79 100.638 200.79 100.425 200.863 100.176L206.033 84.16C206.106 83.9253 206.224 83.7567 206.385 83.654C206.546 83.5367 206.715 83.4853 206.891 83.5C207.082 83.5 207.25 83.5513 207.397 83.654C207.558 83.742 207.668 83.874 207.727 84.05C207.8 84.2113 207.808 84.4167 207.749 84.666L202.579 100.704ZM215.183 100.154C214.817 100.154 214.531 100.051 214.325 99.846C214.135 99.6407 214.039 99.3547 214.039 98.988V86.404H209.375C209.067 86.404 208.825 86.3233 208.649 86.162C208.473 85.986 208.385 85.744 208.385 85.436C208.385 85.128 208.473 84.8933 208.649 84.732C208.825 84.5707 209.067 84.49 209.375 84.49H220.969C221.292 84.49 221.541 84.5707 221.717 84.732C221.893 84.8933 221.981 85.128 221.981 85.436C221.981 85.744 221.893 85.986 221.717 86.162C221.541 86.3233 221.292 86.404 220.969 86.404H216.305V98.988C216.305 99.3547 216.21 99.6407 216.019 99.846C215.843 100.051 215.565 100.154 215.183 100.154ZM226.803 100.198C225.63 100.198 224.618 99.978 223.767 99.538C222.931 99.0833 222.278 98.4453 221.809 97.624C221.354 96.788 221.127 95.798 221.127 94.654C221.127 93.5393 221.354 92.564 221.809 91.728C222.264 90.892 222.887 90.2393 223.679 89.77C224.471 89.3007 225.373 89.066 226.385 89.066C227.133 89.066 227.8 89.1907 228.387 89.44C228.974 89.6747 229.472 90.0267 229.883 90.496C230.308 90.9507 230.624 91.508 230.829 92.168C231.049 92.828 231.159 93.5687 231.159 94.39C231.159 94.6393 231.086 94.83 230.939 94.962C230.792 95.0793 230.572 95.138 230.279 95.138H222.887V93.774H229.663L229.289 94.082C229.289 93.3487 229.179 92.7253 228.959 92.212C228.754 91.6987 228.438 91.31 228.013 91.046C227.602 90.7673 227.089 90.628 226.473 90.628C225.784 90.628 225.197 90.7893 224.713 91.112C224.244 91.4347 223.884 91.882 223.635 92.454C223.386 93.026 223.261 93.6933 223.261 94.456V94.588C223.261 95.8787 223.562 96.854 224.163 97.514C224.779 98.1593 225.666 98.482 226.825 98.482C227.265 98.482 227.727 98.4233 228.211 98.306C228.71 98.1887 229.179 97.9907 229.619 97.712C229.868 97.5653 230.088 97.4993 230.279 97.514C230.484 97.5287 230.646 97.5947 230.763 97.712C230.895 97.8293 230.976 97.976 231.005 98.152C231.034 98.328 231.005 98.5113 230.917 98.702C230.829 98.878 230.675 99.0393 230.455 99.186C229.956 99.5233 229.377 99.78 228.717 99.956C228.057 100.117 227.419 100.198 226.803 100.198ZM234.726 100.154C234.374 100.154 234.102 100.059 233.912 99.868C233.721 99.6627 233.626 99.384 233.626 99.032V90.232C233.626 89.8653 233.721 89.5867 233.912 89.396C234.102 89.2053 234.366 89.11 234.704 89.11C235.056 89.11 235.32 89.2053 235.496 89.396C235.686 89.5867 235.782 89.8653 235.782 90.232V92.036L235.54 91.552C235.833 90.7747 236.288 90.166 236.904 89.726C237.52 89.286 238.26 89.066 239.126 89.066C240.02 89.066 240.746 89.2787 241.304 89.704C241.861 90.1293 242.242 90.782 242.448 91.662H242.14C242.418 90.8553 242.895 90.2247 243.57 89.77C244.244 89.3007 245.029 89.066 245.924 89.066C246.745 89.066 247.42 89.2273 247.948 89.55C248.476 89.858 248.872 90.3347 249.136 90.98C249.4 91.6107 249.532 92.41 249.532 93.378V99.032C249.532 99.384 249.429 99.6627 249.224 99.868C249.033 100.059 248.762 100.154 248.41 100.154C248.058 100.154 247.786 100.059 247.596 99.868C247.405 99.6627 247.31 99.384 247.31 99.032V93.488C247.31 92.5787 247.148 91.9113 246.826 91.486C246.518 91.0607 246.004 90.848 245.286 90.848C244.479 90.848 243.841 91.1267 243.372 91.684C242.902 92.2413 242.668 93.0113 242.668 93.994V99.032C242.668 99.384 242.572 99.6627 242.382 99.868C242.191 100.059 241.92 100.154 241.568 100.154C241.216 100.154 240.937 100.059 240.732 99.868C240.541 99.6627 240.446 99.384 240.446 99.032V93.488C240.446 92.5787 240.292 91.9113 239.984 91.486C239.676 91.0607 239.162 90.848 238.444 90.848C237.637 90.848 236.999 91.1267 236.53 91.684C236.075 92.2413 235.848 93.0113 235.848 93.994V99.032C235.848 99.78 235.474 100.154 234.726 100.154ZM253.738 104.114C253.386 104.114 253.115 104.019 252.924 103.828C252.734 103.637 252.638 103.359 252.638 102.992V90.232C252.638 89.8653 252.734 89.5867 252.924 89.396C253.115 89.2053 253.379 89.11 253.716 89.11C254.068 89.11 254.34 89.2053 254.53 89.396C254.721 89.5867 254.816 89.8653 254.816 90.232V92.146L254.574 91.684C254.809 90.892 255.271 90.2613 255.96 89.792C256.65 89.308 257.464 89.066 258.402 89.066C259.356 89.066 260.184 89.2933 260.888 89.748C261.607 90.2027 262.157 90.8407 262.538 91.662C262.934 92.4833 263.132 93.4733 263.132 94.632C263.132 95.7613 262.934 96.7513 262.538 97.602C262.157 98.438 261.614 99.0833 260.91 99.538C260.206 99.978 259.37 100.198 258.402 100.198C257.478 100.198 256.672 99.9633 255.982 99.494C255.293 99.0247 254.831 98.4013 254.596 97.624H254.86V102.992C254.86 103.359 254.758 103.637 254.552 103.828C254.362 104.019 254.09 104.114 253.738 104.114ZM257.852 98.482C258.468 98.482 259.004 98.3353 259.458 98.042C259.913 97.7487 260.265 97.316 260.514 96.744C260.764 96.172 260.888 95.468 260.888 94.632C260.888 93.3707 260.61 92.4173 260.052 91.772C259.51 91.1267 258.776 90.804 257.852 90.804C257.251 90.804 256.716 90.9507 256.246 91.244C255.792 91.5227 255.44 91.948 255.19 92.52C254.941 93.092 254.816 93.796 254.816 94.632C254.816 95.8787 255.095 96.832 255.652 97.492C256.21 98.152 256.943 98.482 257.852 98.482ZM269.09 100.198C267.946 100.198 267.081 99.868 266.494 99.208C265.922 98.5333 265.636 97.5653 265.636 96.304V85.458C265.636 85.0913 265.732 84.8127 265.922 84.622C266.113 84.4313 266.384 84.336 266.736 84.336C267.088 84.336 267.36 84.4313 267.55 84.622C267.756 84.8127 267.858 85.0913 267.858 85.458V96.172C267.858 96.9053 268.005 97.4553 268.298 97.822C268.606 98.174 269.046 98.35 269.618 98.35C269.75 98.35 269.868 98.35 269.97 98.35C270.073 98.3353 270.176 98.3207 270.278 98.306C270.454 98.2913 270.579 98.3427 270.652 98.46C270.726 98.5627 270.762 98.7827 270.762 99.12C270.762 99.428 270.696 99.67 270.564 99.846C270.432 100.007 270.22 100.11 269.926 100.154C269.794 100.169 269.655 100.176 269.508 100.176C269.362 100.191 269.222 100.198 269.09 100.198ZM275.793 100.198C275.045 100.198 274.37 100.051 273.769 99.758C273.182 99.4647 272.72 99.0687 272.383 98.57C272.045 98.0713 271.877 97.5067 271.877 96.876C271.877 96.084 272.075 95.4607 272.471 95.006C272.881 94.5367 273.549 94.2067 274.473 94.016C275.411 93.8107 276.673 93.708 278.257 93.708H279.291V95.072H278.279C277.223 95.072 276.387 95.1233 275.771 95.226C275.155 95.3287 274.715 95.5047 274.451 95.754C274.201 95.9887 274.077 96.3187 274.077 96.744C274.077 97.3013 274.267 97.756 274.649 98.108C275.03 98.4453 275.558 98.614 276.233 98.614C276.775 98.614 277.252 98.4893 277.663 98.24C278.073 97.976 278.396 97.624 278.631 97.184C278.88 96.744 279.005 96.238 279.005 95.666V93.136C279.005 92.3 278.829 91.6987 278.477 91.332C278.125 90.9653 277.545 90.782 276.739 90.782C276.269 90.782 275.778 90.8407 275.265 90.958C274.766 91.0753 274.245 91.2733 273.703 91.552C273.453 91.6693 273.241 91.706 273.065 91.662C272.889 91.618 272.749 91.5227 272.647 91.376C272.544 91.2147 272.485 91.046 272.471 90.87C272.471 90.6793 272.515 90.496 272.603 90.32C272.705 90.144 272.874 90.012 273.109 89.924C273.754 89.616 274.392 89.396 275.023 89.264C275.653 89.132 276.247 89.066 276.805 89.066C277.787 89.066 278.594 89.22 279.225 89.528C279.87 89.836 280.347 90.3053 280.655 90.936C280.963 91.5667 281.117 92.3807 281.117 93.378V99.032C281.117 99.384 281.029 99.6627 280.853 99.868C280.677 100.059 280.42 100.154 280.083 100.154C279.76 100.154 279.503 100.059 279.313 99.868C279.122 99.6627 279.027 99.384 279.027 99.032V97.602H279.225C279.107 98.1447 278.887 98.614 278.565 99.01C278.257 99.3913 277.868 99.6847 277.399 99.89C276.929 100.095 276.394 100.198 275.793 100.198ZM288.753 100.198C287.873 100.198 287.133 100.044 286.531 99.736C285.93 99.428 285.483 98.9733 285.189 98.372C284.896 97.7707 284.749 97.0373 284.749 96.172V90.98H283.429C283.136 90.98 282.909 90.9067 282.747 90.76C282.586 90.5987 282.505 90.386 282.505 90.122C282.505 89.8433 282.586 89.6307 282.747 89.484C282.909 89.3373 283.136 89.264 283.429 89.264H284.749V86.998C284.749 86.6313 284.845 86.3527 285.035 86.162C285.241 85.9713 285.519 85.876 285.871 85.876C286.223 85.876 286.495 85.9713 286.685 86.162C286.876 86.3527 286.971 86.6313 286.971 86.998V89.264H289.545C289.839 89.264 290.066 89.3373 290.227 89.484C290.389 89.6307 290.469 89.8433 290.469 90.122C290.469 90.386 290.389 90.5987 290.227 90.76C290.066 90.9067 289.839 90.98 289.545 90.98H286.971V95.996C286.971 96.7733 287.133 97.36 287.455 97.756C287.793 98.152 288.335 98.35 289.083 98.35C289.347 98.35 289.575 98.328 289.765 98.284C289.971 98.2253 290.139 98.1887 290.271 98.174C290.433 98.174 290.565 98.2327 290.667 98.35C290.77 98.4527 290.821 98.658 290.821 98.966C290.821 99.186 290.777 99.3913 290.689 99.582C290.616 99.7727 290.477 99.8973 290.271 99.956C290.095 100.015 289.853 100.066 289.545 100.11C289.252 100.169 288.988 100.198 288.753 100.198ZM297.143 100.198C295.97 100.198 294.958 99.978 294.107 99.538C293.271 99.0833 292.618 98.4453 292.149 97.624C291.694 96.788 291.467 95.798 291.467 94.654C291.467 93.5393 291.694 92.564 292.149 91.728C292.604 90.892 293.227 90.2393 294.019 89.77C294.811 89.3007 295.713 89.066 296.725 89.066C297.473 89.066 298.14 89.1907 298.727 89.44C299.314 89.6747 299.812 90.0267 300.223 90.496C300.648 90.9507 300.964 91.508 301.169 92.168C301.389 92.828 301.499 93.5687 301.499 94.39C301.499 94.6393 301.426 94.83 301.279 94.962C301.132 95.0793 300.912 95.138 300.619 95.138H293.227V93.774H300.003L299.629 94.082C299.629 93.3487 299.519 92.7253 299.299 92.212C299.094 91.6987 298.778 91.31 298.353 91.046C297.942 90.7673 297.429 90.628 296.813 90.628C296.124 90.628 295.537 90.7893 295.053 91.112C294.584 91.4347 294.224 91.882 293.975 92.454C293.726 93.026 293.601 93.6933 293.601 94.456V94.588C293.601 95.8787 293.902 96.854 294.503 97.514C295.119 98.1593 296.006 98.482 297.165 98.482C297.605 98.482 298.067 98.4233 298.551 98.306C299.05 98.1887 299.519 97.9907 299.959 97.712C300.208 97.5653 300.428 97.4993 300.619 97.514C300.824 97.5287 300.986 97.5947 301.103 97.712C301.235 97.8293 301.316 97.976 301.345 98.152C301.374 98.328 301.345 98.5113 301.257 98.702C301.169 98.878 301.015 99.0393 300.795 99.186C300.296 99.5233 299.717 99.78 299.057 99.956C298.397 100.117 297.759 100.198 297.143 100.198ZM311.042 100.154C310.705 100.154 310.441 100.059 310.25 99.868C310.059 99.6773 309.964 99.406 309.964 99.054V85.48C309.964 85.1133 310.052 84.8347 310.228 84.644C310.419 84.4387 310.668 84.336 310.976 84.336C311.24 84.336 311.438 84.3873 311.57 84.49C311.717 84.578 311.885 84.7467 312.076 84.996L321.14 96.942H320.59V85.414C320.59 85.0767 320.678 84.8127 320.854 84.622C321.045 84.4313 321.309 84.336 321.646 84.336C321.998 84.336 322.262 84.4313 322.438 84.622C322.614 84.8127 322.702 85.0767 322.702 85.414V99.076C322.702 99.4133 322.614 99.6773 322.438 99.868C322.277 100.059 322.057 100.154 321.778 100.154C321.514 100.154 321.294 100.103 321.118 100C320.957 99.8973 320.781 99.7213 320.59 99.472L311.57 87.548H312.076V99.054C312.076 99.406 311.988 99.6773 311.812 99.868C311.636 100.059 311.379 100.154 311.042 100.154ZM329.504 100.198C328.756 100.198 328.081 100.051 327.48 99.758C326.893 99.4647 326.431 99.0687 326.094 98.57C325.756 98.0713 325.588 97.5067 325.588 96.876C325.588 96.084 325.786 95.4607 326.182 95.006C326.592 94.5367 327.26 94.2067 328.184 94.016C329.122 93.8107 330.384 93.708 331.968 93.708H333.002V95.072H331.99C330.934 95.072 330.098 95.1233 329.482 95.226C328.866 95.3287 328.426 95.5047 328.162 95.754C327.912 95.9887 327.788 96.3187 327.788 96.744C327.788 97.3013 327.978 97.756 328.36 98.108C328.741 98.4453 329.269 98.614 329.944 98.614C330.486 98.614 330.963 98.4893 331.374 98.24C331.784 97.976 332.107 97.624 332.342 97.184C332.591 96.744 332.716 96.238 332.716 95.666V93.136C332.716 92.3 332.54 91.6987 332.188 91.332C331.836 90.9653 331.256 90.782 330.45 90.782C329.98 90.782 329.489 90.8407 328.976 90.958C328.477 91.0753 327.956 91.2733 327.414 91.552C327.164 91.6693 326.952 91.706 326.776 91.662C326.6 91.618 326.46 91.5227 326.358 91.376C326.255 91.2147 326.196 91.046 326.182 90.87C326.182 90.6793 326.226 90.496 326.314 90.32C326.416 90.144 326.585 90.012 326.82 89.924C327.465 89.616 328.103 89.396 328.734 89.264C329.364 89.132 329.958 89.066 330.516 89.066C331.498 89.066 332.305 89.22 332.936 89.528C333.581 89.836 334.058 90.3053 334.366 90.936C334.674 91.5667 334.828 92.3807 334.828 93.378V99.032C334.828 99.384 334.74 99.6627 334.564 99.868C334.388 100.059 334.131 100.154 333.794 100.154C333.471 100.154 333.214 100.059 333.024 99.868C332.833 99.6627 332.738 99.384 332.738 99.032V97.602H332.936C332.818 98.1447 332.598 98.614 332.276 99.01C331.968 99.3913 331.579 99.6847 331.11 99.89C330.64 100.095 330.105 100.198 329.504 100.198ZM339.032 100.154C338.68 100.154 338.409 100.059 338.218 99.868C338.028 99.6627 337.932 99.384 337.932 99.032V90.232C337.932 89.8653 338.028 89.5867 338.218 89.396C338.409 89.2053 338.673 89.11 339.01 89.11C339.362 89.11 339.626 89.2053 339.802 89.396C339.993 89.5867 340.088 89.8653 340.088 90.232V92.036L339.846 91.552C340.14 90.7747 340.594 90.166 341.21 89.726C341.826 89.286 342.567 89.066 343.432 89.066C344.327 89.066 345.053 89.2787 345.61 89.704C346.168 90.1293 346.549 90.782 346.754 91.662H346.446C346.725 90.8553 347.202 90.2247 347.876 89.77C348.551 89.3007 349.336 89.066 350.23 89.066C351.052 89.066 351.726 89.2273 352.254 89.55C352.782 89.858 353.178 90.3347 353.442 90.98C353.706 91.6107 353.838 92.41 353.838 93.378V99.032C353.838 99.384 353.736 99.6627 353.53 99.868C353.34 100.059 353.068 100.154 352.716 100.154C352.364 100.154 352.093 100.059 351.902 99.868C351.712 99.6627 351.616 99.384 351.616 99.032V93.488C351.616 92.5787 351.455 91.9113 351.132 91.486C350.824 91.0607 350.311 90.848 349.592 90.848C348.786 90.848 348.148 91.1267 347.678 91.684C347.209 92.2413 346.974 93.0113 346.974 93.994V99.032C346.974 99.384 346.879 99.6627 346.688 99.868C346.498 100.059 346.226 100.154 345.874 100.154C345.522 100.154 345.244 100.059 345.038 99.868C344.848 99.6627 344.752 99.384 344.752 99.032V93.488C344.752 92.5787 344.598 91.9113 344.29 91.486C343.982 91.0607 343.469 90.848 342.75 90.848C341.944 90.848 341.306 91.1267 340.836 91.684C340.382 92.2413 340.154 93.0113 340.154 93.994V99.032C340.154 99.78 339.78 100.154 339.032 100.154ZM361.983 100.198C360.809 100.198 359.797 99.978 358.947 99.538C358.111 99.0833 357.458 98.4453 356.989 97.624C356.534 96.788 356.307 95.798 356.307 94.654C356.307 93.5393 356.534 92.564 356.989 91.728C357.443 90.892 358.067 90.2393 358.859 89.77C359.651 89.3007 360.553 89.066 361.565 89.066C362.313 89.066 362.98 89.1907 363.567 89.44C364.153 89.6747 364.652 90.0267 365.063 90.496C365.488 90.9507 365.803 91.508 366.009 92.168C366.229 92.828 366.339 93.5687 366.339 94.39C366.339 94.6393 366.265 94.83 366.119 94.962C365.972 95.0793 365.752 95.138 365.459 95.138H358.067V93.774H364.843L364.469 94.082C364.469 93.3487 364.359 92.7253 364.139 92.212C363.933 91.6987 363.618 91.31 363.193 91.046C362.782 90.7673 362.269 90.628 361.653 90.628C360.963 90.628 360.377 90.7893 359.893 91.112C359.423 91.4347 359.064 91.882 358.815 92.454C358.565 93.026 358.441 93.6933 358.441 94.456V94.588C358.441 95.8787 358.741 96.854 359.343 97.514C359.959 98.1593 360.846 98.482 362.005 98.482C362.445 98.482 362.907 98.4233 363.391 98.306C363.889 98.1887 364.359 97.9907 364.799 97.712C365.048 97.5653 365.268 97.4993 365.459 97.514C365.664 97.5287 365.825 97.5947 365.943 97.712C366.075 97.8293 366.155 97.976 366.185 98.152C366.214 98.328 366.185 98.5113 366.097 98.702C366.009 98.878 365.855 99.0393 365.635 99.186C365.136 99.5233 364.557 99.78 363.897 99.956C363.237 100.117 362.599 100.198 361.983 100.198ZM367.908 103.96C367.644 103.96 367.432 103.879 367.27 103.718C367.109 103.557 367.028 103.351 367.028 103.102C367.028 102.867 367.109 102.662 367.27 102.486C367.432 102.325 367.644 102.244 367.908 102.244H369.712V86.206H367.908C367.644 86.206 367.432 86.1253 367.27 85.964C367.109 85.788 367.028 85.5827 367.028 85.348C367.028 85.0987 367.109 84.8933 367.27 84.732C367.432 84.5707 367.644 84.49 367.908 84.49H370.988C371.252 84.49 371.472 84.578 371.648 84.754C371.839 84.93 371.934 85.1573 371.934 85.436V103.014C371.934 103.278 371.839 103.498 371.648 103.674C371.472 103.865 371.252 103.96 370.988 103.96H367.908Z" fill="#1A1A1A"/>
<path d="M342 150.9V155.1C342 158.6 340.6 160 337.1 160H332.9C329.4 160 328 158.6 328 155.1V150.9C328 147.4 329.4 146 332.9 146H337.1C340.6 146 342 147.4 342 150.9Z" stroke="#1A1A1A" stroke-width="1.5" stroke-linecap="round" stroke-linejoin="round"/>
<path d="M348 144.9V149.1C348 152.6 346.6 154 343.1 154H342V150.9C342 147.4 340.6 146 337.1 146H334V144.9C334 141.4 335.4 140 338.9 140H343.1C346.6 140 348 141.4 348 144.9Z" stroke="#1A1A1A" stroke-width="1.5" stroke-linecap="round" stroke-linejoin="round"/>
<path d="M397 153.35V147.65C397 142.9 395.1 141 390.35 141H384.65C379.9 141 378 142.9 378 147.65V153.35C378 158.1 379.9 160 384.65 160H390.35C395.1 160 397 158.1 397 153.35Z" stroke="#1A1A1A" stroke-width="1.5" stroke-linecap="round" stroke-linejoin="round"/>
<path d="M384 150.5L386.337 153L391 148" stroke="#1A1A1A" stroke-width="1.5" stroke-linecap="round" stroke-linejoin="round"/>
<path d="M176.11 143.08C176.98 142.82 177.94 142.65 179 142.65C183.79 142.65 187.67 146.53 187.67 151.32C187.67 156.11 183.79 159.99 179 159.99C174.21 159.99 170.33 156.11 170.33 151.32C170.33 149.54 170.87 147.88 171.79 146.5M174.87 143.32L177.76 140M174.87 143.32L178.24 145.78" stroke="#1A1A1A" stroke-width="1.5" stroke-linecap="round" stroke-linejoin="round"/>
<path d="M252.89 143.08C252.02 142.82 251.06 142.65 250 142.65C245.21 142.65 241.33 146.53 241.33 151.32C241.33 156.12 245.21 160 250 160C254.79 160 258.67 156.12 258.67 151.33C258.67 149.55 258.13 147.89 257.21 146.51M254.13 143.32L251.24 140M254.13 143.32L250.76 145.78" stroke="#1A1A1A" stroke-width="1.5" stroke-linecap="round" stroke-linejoin="round"/>
<path d="M49 143.98C45.67 143.65 42.32 143.48 38.98 143.48C37 143.48 35.02 143.58 33.04 143.78L31 143.98M36.5 142.97L36.72 141.66C36.88 140.71 37 140 38.69 140H41.31C43 140 43.13 140.75 43.28 141.67L43.5 142.97M46.85 147.14L46.2 157.21C46.09 158.78 46 160 43.21 160H36.79C34 160 33.91 158.78 33.8 157.21L33.15 147.14M38.33 154.5H41.66M37.5 150.5H42.5" stroke="#1A1A1A" stroke-width="1.5" stroke-linecap="round" stroke-linejoin="round"/>
<rect x="368" y="277" width="40" height="354" rx="19.5" fill="#C4FFC5"/>
<path d="M397.81 294.94C396.27 298.78 392.41 304 389.18 306.59L387.21 308.17C386.96 308.35 386.71 308.51 386.43 308.62C386.43 308.44 386.42 308.24 386.39 308.05C386.28 307.21 385.9 306.43 385.23 305.76C384.55 305.08 383.72 304.68 382.87 304.57C382.67 304.56 382.47 304.54 382.27 304.56C382.38 304.25 382.55 303.96 382.76 303.72L384.32 301.75C386.9 298.52 392.14 294.64 395.97 293.11C396.56 292.89 397.13 293.05 397.49 293.42C397.87 293.79 398.05 294.36 397.81 294.94V294.94Z" stroke="#1A1A1A" stroke-width="1.5" stroke-linecap="round" stroke-linejoin="round"/>
<path d="M390.24 305.47C390.24 302.86 388.12 300.74 385.51 300.74M386.43 308.62C386.43 309.72 386.01 310.77 385.22 311.57C384.61 312.18 383.78 312.6 382.79 312.73L380.33 313C378.99 313.15 377.84 312.01 378 310.65L378.27 308.19C378.51 306 380.34 304.6 382.28 304.56C382.48 304.55 382.69 304.56 382.88 304.57C383.73 304.68 384.56 305.07 385.24 305.76C385.91 306.43 386.29 307.21 386.4 308.05C386.41 308.24 386.43 308.43 386.43 308.62V308.62Z" stroke="#1A1A1A" stroke-width="1.5" stroke-linecap="round" stroke-linejoin="round"/>
<path d="M385 364H397M383.12 351.13L390.87 358.88M379.52 359.66L385.17 354M382.34 362.49L388 356.83M378.91 359.58L382.42 363.09C382.983 363.652 383.745 363.967 384.54 363.967C385.335 363.967 386.098 363.652 386.66 363.09L397.09 352.66C397.652 352.097 397.967 351.335 397.967 350.54C397.967 349.745 397.652 348.982 397.09 348.42L393.58 344.91C393.018 344.348 392.255 344.033 391.46 344.033C390.665 344.033 389.903 344.348 389.34 344.91L378.91 355.34C378.348 355.902 378.033 356.665 378.033 357.46C378.033 358.255 378.348 359.017 378.91 359.58V359.58Z" stroke="#1A1A1A" stroke-width="1.5" stroke-linecap="round" stroke-linejoin="round"/>
<path d="M389.65 496.95L388.31 498.29M395.93 506.92L380.81 506.26M390.99 513L395 508.99C396.34 507.65 396.34 506.32 395 504.98L388.32 498.3L380.97 505.65C380.6 506.02 380.6 506.62 380.97 506.99L386.99 513.01C388.31 514.33 389.65 514.33 390.99 513Z" stroke="#1A1A1A" stroke-width="1.5" stroke-miterlimit="10" stroke-linecap="round" stroke-linejoin="round"/>
<path d="M379.15 510C379.15 510 381 512.01 381 513.24C381 514.26 380.17 515.09 379.15 515.09C378.13 515.09 377.3 514.26 377.3 513.24C377.3 512.01 379.15 510 379.15 510V510Z" stroke="#1A1A1A" stroke-width="1.5" stroke-linecap="round" stroke-linejoin="round"/>
<path d="M373.333 393C373.333 394.473 374.527 395.667 376 395.667C377.473 395.667 378.667 394.473 378.667 393C378.667 391.527 377.473 390.333 376 390.333C374.527 390.333 373.333 391.527 373.333 393ZM397.333 417C397.333 418.473 398.527 419.667 400 419.667C401.473 419.667 402.667 418.473 402.667 417C402.667 415.527 401.473 414.333 400 414.333C398.527 414.333 397.333 415.527 397.333 417ZM375.646 393.354L399.646 417.354L400.354 416.646L376.354 392.646L375.646 393.354Z" fill="#1A1A1A"/>
<path d="M373.333 444C373.333 445.473 374.527 446.667 376 446.667C377.473 446.667 378.667 445.473 378.667 444C378.667 442.527 377.473 441.333 376 441.333C374.527 441.333 373.333 442.527 373.333 444ZM397.333 468C397.333 469.473 398.527 470.667 400 470.667C401.473 470.667 402.667 469.473 402.667 468C402.667 466.527 401.473 465.333 400 465.333C398.527 465.333 397.333 466.527 397.333 468ZM375.938 444.496C377.753 444.723 380.488 445.545 382.758 447.258C385.01 448.959 386.794 451.527 386.794 455.294H387.794C387.794 451.156 385.813 448.312 383.36 446.46C380.923 444.62 378.012 443.748 376.062 443.504L375.938 444.496ZM386.794 455.294C386.794 459.449 389.027 462.522 391.751 464.653C394.468 466.778 397.717 468.005 399.892 468.488L400.108 467.512C398.047 467.054 394.944 465.88 392.367 463.865C389.797 461.855 387.794 459.045 387.794 455.294H386.794Z" fill="#1A1A1A"/>
<circle cx="387.5" cy="457.5" r="2.5" fill="#1A1A1A"/>
<rect x="375.5" y="545.5" width="25" height="25" stroke="#1A1A1A" stroke-dasharray="5 5"/>
<path d="M388.797 597L385.136 600.323M388.797 597L392.458 600.323M388.797 597V609M388.797 621L385.136 617.677M388.797 621L392.458 617.677M388.797 621V609M388.797 609H377M388.797 609H401M377 609L380.254 611.954M377 609L380.254 606.046M401 609L397.746 611.954M401 609L397.746 606.046" stroke="#1A1A1A"/>
<defs>
<clipPath id="clip0_1_809">
<rect x="8" y="8" width="412" height="892" rx="18" fill="white"/>
</clipPath>
<clipPath id="clip1_1_809">
<rect x="16" y="72" width="40" height="40" rx="20" fill="white"/>
</clipPath>
</defs>
</svg>
