<svg width="761" height="91" viewBox="0 0 761 91" fill="none" xmlns="http://www.w3.org/2000/svg">
<path d="M35.125 16.0938L18.4844 70H0.8125L25.8906 1.75H37.0938L35.125 16.0938ZM48.9062 70L32.2188 16.0938L30.0625 1.75H41.4062L66.625 70H48.9062ZM48.25 44.5469V57.25H13.2344V44.5469H48.25ZM84.1562 30.1094V70H68.3594V19.2812H83.1719L84.1562 30.1094ZM82.2812 42.9062L78.5781 43C78.5781 39.125 79.0469 35.6719 79.9844 32.6406C80.9219 29.5781 82.25 26.9844 83.9688 24.8594C85.6875 22.7344 87.7344 21.125 90.1094 20.0312C92.5156 18.9062 95.1875 18.3438 98.125 18.3438C100.469 18.3438 102.609 18.6875 104.547 19.375C106.516 20.0625 108.203 21.1719 109.609 22.7031C111.047 24.2344 112.141 26.2656 112.891 28.7969C113.672 31.2969 114.062 34.3906 114.062 38.0781V70H98.1719V38.0312C98.1719 36 97.8906 34.4531 97.3281 33.3906C96.7656 32.2969 95.9531 31.5469 94.8906 31.1406C93.8281 30.7344 92.5312 30.5312 91 30.5312C89.375 30.5312 88 30.8438 86.875 31.4688C85.75 32.0938 84.8438 32.9688 84.1562 34.0938C83.5 35.1875 83.0156 36.4844 82.7031 37.9844C82.4219 39.4844 82.2812 41.125 82.2812 42.9062ZM138.391 64.0469L151.516 19.2812H168.484L148.094 77.5469C147.656 78.8281 147.078 80.2031 146.359 81.6719C145.641 83.1719 144.656 84.5938 143.406 85.9375C142.156 87.2812 140.547 88.375 138.578 89.2188C136.641 90.0625 134.234 90.4844 131.359 90.4844C129.828 90.4844 128.703 90.4062 127.984 90.25C127.297 90.125 126.234 89.8906 124.797 89.5469V78.25C125.203 78.25 125.547 78.25 125.828 78.25C126.141 78.25 126.484 78.25 126.859 78.25C128.547 78.25 129.891 78.0781 130.891 77.7344C131.922 77.3906 132.703 76.8906 133.234 76.2344C133.797 75.5781 134.234 74.7812 134.547 73.8438L138.391 64.0469ZM135.062 19.2812L145.047 54.7656L146.781 71.5H136.188L118.141 19.2812H135.062ZM169.891 45.1562V44.1719C169.891 40.4531 170.422 37.0312 171.484 33.9062C172.547 30.75 174.109 28.0156 176.172 25.7031C178.234 23.3906 180.781 21.5938 183.812 20.3125C186.844 19 190.344 18.3438 194.312 18.3438C198.312 18.3438 201.828 19 204.859 20.3125C207.922 21.5938 210.484 23.3906 212.547 25.7031C214.609 28.0156 216.172 30.75 217.234 33.9062C218.297 37.0312 218.828 40.4531 218.828 44.1719V45.1562C218.828 48.8438 218.297 52.2656 217.234 55.4219C216.172 58.5469 214.609 61.2812 212.547 63.625C210.484 65.9375 207.938 67.7344 204.906 69.0156C201.875 70.2969 198.375 70.9375 194.406 70.9375C190.438 70.9375 186.922 70.2969 183.859 69.0156C180.797 67.7344 178.234 65.9375 176.172 63.625C174.109 61.2812 172.547 58.5469 171.484 55.4219C170.422 52.2656 169.891 48.8438 169.891 45.1562ZM185.688 44.1719V45.1562C185.688 47.0625 185.828 48.8438 186.109 50.5C186.391 52.1562 186.859 53.6094 187.516 54.8594C188.172 56.0781 189.062 57.0312 190.188 57.7188C191.312 58.4062 192.719 58.75 194.406 58.75C196.062 58.75 197.438 58.4062 198.531 57.7188C199.656 57.0312 200.547 56.0781 201.203 54.8594C201.859 53.6094 202.328 52.1562 202.609 50.5C202.891 48.8438 203.031 47.0625 203.031 45.1562V44.1719C203.031 42.3281 202.891 40.5938 202.609 38.9688C202.328 37.3125 201.859 35.8594 201.203 34.6094C200.547 33.3281 199.656 32.3281 198.531 31.6094C197.406 30.8906 196 30.5312 194.312 30.5312C192.656 30.5312 191.266 30.8906 190.141 31.6094C189.047 32.3281 188.172 33.3281 187.516 34.6094C186.859 35.8594 186.391 37.3125 186.109 38.9688C185.828 40.5938 185.688 42.3281 185.688 44.1719ZM241.375 30.1094V70H225.578V19.2812H240.391L241.375 30.1094ZM239.5 42.9062L235.797 43C235.797 39.125 236.266 35.6719 237.203 32.6406C238.141 29.5781 239.469 26.9844 241.188 24.8594C242.906 22.7344 244.953 21.125 247.328 20.0312C249.734 18.9062 252.406 18.3438 255.344 18.3438C257.688 18.3438 259.828 18.6875 261.766 19.375C263.734 20.0625 265.422 21.1719 266.828 22.7031C268.266 24.2344 269.359 26.2656 270.109 28.7969C270.891 31.2969 271.281 34.3906 271.281 38.0781V70H255.391V38.0312C255.391 36 255.109 34.4531 254.547 33.3906C253.984 32.2969 253.172 31.5469 252.109 31.1406C251.047 30.7344 249.75 30.5312 248.219 30.5312C246.594 30.5312 245.219 30.8438 244.094 31.4688C242.969 32.0938 242.062 32.9688 241.375 34.0938C240.719 35.1875 240.234 36.4844 239.922 37.9844C239.641 39.4844 239.5 41.125 239.5 42.9062ZM304.609 70.9375C300.484 70.9375 296.797 70.2969 293.547 69.0156C290.297 67.7031 287.547 65.9062 285.297 63.625C283.078 61.3438 281.375 58.7188 280.188 55.75C279.031 52.7812 278.453 49.6406 278.453 46.3281V44.5469C278.453 40.8281 278.969 37.3906 280 34.2344C281.031 31.0469 282.562 28.2656 284.594 25.8906C286.625 23.5156 289.172 21.6719 292.234 20.3594C295.297 19.0156 298.859 18.3438 302.922 18.3438C306.516 18.3438 309.734 18.9219 312.578 20.0781C315.422 21.2344 317.828 22.8906 319.797 25.0469C321.797 27.2031 323.312 29.8125 324.344 32.875C325.406 35.9375 325.938 39.375 325.938 43.1875V49.6094H284.5V39.7188H310.516V38.5C310.547 36.8125 310.25 35.375 309.625 34.1875C309.031 33 308.156 32.0938 307 31.4688C305.844 30.8438 304.438 30.5312 302.781 30.5312C301.062 30.5312 299.641 30.9062 298.516 31.6562C297.422 32.4062 296.562 33.4375 295.938 34.75C295.344 36.0312 294.922 37.5156 294.672 39.2031C294.422 40.8906 294.297 42.6719 294.297 44.5469V46.3281C294.297 48.2031 294.547 49.9062 295.047 51.4375C295.578 52.9688 296.328 54.2812 297.297 55.375C298.297 56.4375 299.484 57.2656 300.859 57.8594C302.266 58.4531 303.859 58.75 305.641 58.75C307.797 58.75 309.922 58.3438 312.016 57.5312C314.109 56.7188 315.906 55.375 317.406 53.5L324.578 62.0312C323.547 63.5 322.078 64.9219 320.172 66.2969C318.297 67.6719 316.047 68.7969 313.422 69.6719C310.797 70.5156 307.859 70.9375 304.609 70.9375ZM395.828 46.8906H412.234C412.016 51.6406 410.734 55.8281 408.391 59.4531C406.047 63.0781 402.797 65.9062 398.641 67.9375C394.516 69.9375 389.641 70.9375 384.016 70.9375C379.453 70.9375 375.375 70.1719 371.781 68.6406C368.219 67.1094 365.188 64.9062 362.688 62.0312C360.219 59.1562 358.328 55.6719 357.016 51.5781C355.734 47.4844 355.094 42.875 355.094 37.75V34.0469C355.094 28.9219 355.766 24.3125 357.109 20.2188C358.484 16.0938 360.422 12.5937 362.922 9.71875C365.453 6.8125 368.484 4.59375 372.016 3.0625C375.547 1.53125 379.469 0.765625 383.781 0.765625C389.719 0.765625 394.734 1.82813 398.828 3.95312C402.922 6.07812 406.094 9 408.344 12.7188C410.594 16.4062 411.922 20.6094 412.328 25.3281H395.922C395.859 22.7656 395.422 20.625 394.609 18.9062C393.797 17.1562 392.516 15.8438 390.766 14.9688C389.016 14.0938 386.688 13.6562 383.781 13.6562C381.75 13.6562 379.984 14.0312 378.484 14.7812C376.984 15.5312 375.734 16.7188 374.734 18.3438C373.734 19.9688 372.984 22.0781 372.484 24.6719C372.016 27.2344 371.781 30.3281 371.781 33.9531V37.75C371.781 41.375 372 44.4688 372.438 47.0312C372.875 49.5938 373.578 51.6875 374.547 53.3125C375.516 54.9375 376.766 56.1406 378.297 56.9219C379.859 57.6719 381.766 58.0469 384.016 58.0469C386.516 58.0469 388.625 57.6562 390.344 56.875C392.062 56.0625 393.391 54.8438 394.328 53.2188C395.266 51.5625 395.766 49.4531 395.828 46.8906ZM445.609 57.25V36.3438C445.609 34.9062 445.406 33.6719 445 32.6406C444.594 31.6094 443.953 30.8125 443.078 30.25C442.203 29.6562 441.031 29.3594 439.562 29.3594C438.375 29.3594 437.359 29.5625 436.516 29.9688C435.672 30.375 435.031 30.9844 434.594 31.7969C434.156 32.6094 433.938 33.6406 433.938 34.8906H418.141C418.141 32.5469 418.656 30.375 419.688 28.375C420.75 26.3438 422.25 24.5781 424.188 23.0781C426.156 21.5781 428.5 20.4219 431.219 19.6094C433.969 18.7656 437.031 18.3438 440.406 18.3438C444.438 18.3438 448.031 19.0156 451.188 20.3594C454.375 21.7031 456.891 23.7188 458.734 26.4062C460.578 29.0625 461.5 32.4062 461.5 36.4375V57.2031C461.5 60.5156 461.688 63.0312 462.062 64.75C462.438 66.4375 462.969 67.9219 463.656 69.2031V70H447.812C447.062 68.4375 446.5 66.5312 446.125 64.2812C445.781 62 445.609 59.6562 445.609 57.25ZM447.531 39.0156L447.625 47.4531H440.641C439.172 47.4531 437.922 47.6562 436.891 48.0625C435.891 48.4688 435.078 49.0312 434.453 49.75C433.859 50.4375 433.422 51.2188 433.141 52.0938C432.891 52.9688 432.766 53.8906 432.766 54.8594C432.766 55.7969 432.984 56.6406 433.422 57.3906C433.891 58.1094 434.516 58.6719 435.297 59.0781C436.078 59.4844 436.953 59.6875 437.922 59.6875C439.672 59.6875 441.156 59.3594 442.375 58.7031C443.625 58.0156 444.578 57.1875 445.234 56.2188C445.891 55.25 446.219 54.3438 446.219 53.5L449.688 59.9688C449.062 61.2188 448.344 62.4844 447.531 63.7656C446.75 65.0469 445.766 66.2344 444.578 67.3281C443.422 68.3906 442 69.2656 440.312 69.9531C438.625 70.6094 436.578 70.9375 434.172 70.9375C431.047 70.9375 428.172 70.2969 425.547 69.0156C422.953 67.7344 420.875 65.9531 419.312 63.6719C417.75 61.3594 416.969 58.7031 416.969 55.7031C416.969 53.0781 417.438 50.7344 418.375 48.6719C419.344 46.6094 420.797 44.8594 422.734 43.4219C424.672 41.9844 427.141 40.8906 430.141 40.1406C433.141 39.3906 436.672 39.0156 440.734 39.0156H447.531ZM485.781 30.1094V70H469.984V19.2812H484.797L485.781 30.1094ZM483.906 42.9062L480.203 43C480.203 39.125 480.672 35.6719 481.609 32.6406C482.547 29.5781 483.875 26.9844 485.594 24.8594C487.312 22.7344 489.359 21.125 491.734 20.0312C494.141 18.9062 496.812 18.3438 499.75 18.3438C502.094 18.3438 504.234 18.6875 506.172 19.375C508.141 20.0625 509.828 21.1719 511.234 22.7031C512.672 24.2344 513.766 26.2656 514.516 28.7969C515.297 31.2969 515.688 34.3906 515.688 38.0781V70H499.797V38.0312C499.797 36 499.516 34.4531 498.953 33.3906C498.391 32.2969 497.578 31.5469 496.516 31.1406C495.453 30.7344 494.156 30.5312 492.625 30.5312C491 30.5312 489.625 30.8438 488.5 31.4688C487.375 32.0938 486.469 32.9688 485.781 34.0938C485.125 35.1875 484.641 36.4844 484.328 37.9844C484.047 39.4844 483.906 41.125 483.906 42.9062ZM571.281 70H556.141L556.234 57.3438H571.281C574.406 57.3438 577.047 56.5938 579.203 55.0938C581.391 53.5938 583.047 51.3594 584.172 48.3906C585.328 45.3906 585.906 41.7031 585.906 37.3281V34.375C585.906 31.0938 585.578 28.2188 584.922 25.75C584.297 23.25 583.359 21.1719 582.109 19.5156C580.859 17.8281 579.297 16.5625 577.422 15.7188C575.578 14.875 573.453 14.4531 571.047 14.4531H555.859V1.75H571.047C575.672 1.75 579.906 2.54688 583.75 4.14062C587.625 5.70312 590.969 7.95312 593.781 10.8906C596.625 13.7969 598.812 17.25 600.344 21.25C601.906 25.2188 602.688 29.625 602.688 34.4688V37.3281C602.688 42.1406 601.906 46.5469 600.344 50.5469C598.812 54.5469 596.641 58 593.828 60.9062C591.016 63.8125 587.688 66.0625 583.844 67.6562C580.031 69.2188 575.844 70 571.281 70ZM565.562 1.75V70H549.109V1.75H565.562ZM626.453 31.8438V70H610.656V19.2812H625.422L626.453 31.8438ZM641.453 18.9062L641.172 33.5781C640.547 33.5156 639.703 33.4375 638.641 33.3438C637.578 33.25 636.688 33.2031 635.969 33.2031C634.125 33.2031 632.531 33.4219 631.188 33.8594C629.875 34.2656 628.781 34.8906 627.906 35.7344C627.062 36.5469 626.438 37.5781 626.031 38.8281C625.656 40.0781 625.484 41.5312 625.516 43.1875L622.656 41.3125C622.656 37.9062 622.984 34.8125 623.641 32.0312C624.328 29.2188 625.297 26.7969 626.547 24.7656C627.797 22.7031 629.312 21.125 631.094 20.0312C632.875 18.9062 634.875 18.3438 637.094 18.3438C637.875 18.3438 638.641 18.3906 639.391 18.4844C640.172 18.5781 640.859 18.7188 641.453 18.9062ZM671.828 57.25V36.3438C671.828 34.9062 671.625 33.6719 671.219 32.6406C670.812 31.6094 670.172 30.8125 669.297 30.25C668.422 29.6562 667.25 29.3594 665.781 29.3594C664.594 29.3594 663.578 29.5625 662.734 29.9688C661.891 30.375 661.25 30.9844 660.812 31.7969C660.375 32.6094 660.156 33.6406 660.156 34.8906H644.359C644.359 32.5469 644.875 30.375 645.906 28.375C646.969 26.3438 648.469 24.5781 650.406 23.0781C652.375 21.5781 654.719 20.4219 657.438 19.6094C660.188 18.7656 663.25 18.3438 666.625 18.3438C670.656 18.3438 674.25 19.0156 677.406 20.3594C680.594 21.7031 683.109 23.7188 684.953 26.4062C686.797 29.0625 687.719 32.4062 687.719 36.4375V57.2031C687.719 60.5156 687.906 63.0312 688.281 64.75C688.656 66.4375 689.188 67.9219 689.875 69.2031V70H674.031C673.281 68.4375 672.719 66.5312 672.344 64.2812C672 62 671.828 59.6562 671.828 57.25ZM673.75 39.0156L673.844 47.4531H666.859C665.391 47.4531 664.141 47.6562 663.109 48.0625C662.109 48.4688 661.297 49.0312 660.672 49.75C660.078 50.4375 659.641 51.2188 659.359 52.0938C659.109 52.9688 658.984 53.8906 658.984 54.8594C658.984 55.7969 659.203 56.6406 659.641 57.3906C660.109 58.1094 660.734 58.6719 661.516 59.0781C662.297 59.4844 663.172 59.6875 664.141 59.6875C665.891 59.6875 667.375 59.3594 668.594 58.7031C669.844 58.0156 670.797 57.1875 671.453 56.2188C672.109 55.25 672.438 54.3438 672.438 53.5L675.906 59.9688C675.281 61.2188 674.562 62.4844 673.75 63.7656C672.969 65.0469 671.984 66.2344 670.797 67.3281C669.641 68.3906 668.219 69.2656 666.531 69.9531C664.844 70.6094 662.797 70.9375 660.391 70.9375C657.266 70.9375 654.391 70.2969 651.766 69.0156C649.172 67.7344 647.094 65.9531 645.531 63.6719C643.969 61.3594 643.188 58.7031 643.188 55.7031C643.188 53.0781 643.656 50.7344 644.594 48.6719C645.562 46.6094 647.016 44.8594 648.953 43.4219C650.891 41.9844 653.359 40.8906 656.359 40.1406C659.359 39.3906 662.891 39.0156 666.953 39.0156H673.75ZM711.906 54.9062L721.281 19.2812H731.172L727.656 37.1406L718.375 70H710.453L711.906 54.9062ZM708.203 19.2812L714.016 54.625L714.672 70H705.062L693.062 19.2812H708.203ZM739.516 53.875L745.375 19.2812H760.516L748.609 70H739L739.516 53.875ZM732.297 19.2812L741.766 54.8125L743.219 70H735.203L726.109 37.2344L722.734 19.2812H732.297Z" fill="#FFBA61"/>
</svg>
